<?xml version="1.0" encoding="UTF-8"?>
<!DOCTYPE svg PUBLIC "-//W3C//DTD SVG 1.1//EN" "http://www.w3.org/Graphics/SVG/1.1/DTD/svg11.dtd">
<svg width="154mm" height="89mm" viewBox="0 0 15400 8900" version="1.1" baseProfile="tiny" xmlns="http://www.w3.org/2000/svg" stroke-width="28.222" stroke-linejoin="round" xml:space="preserve">
 <path fill="none" stroke="rgb(51,51,51)" stroke-width="100" stroke-linejoin="round" d="M 50,50 L 15385,50 15385,8865 50,8865 50,50 Z"/>
 <path fill="rgb(238,238,238)" stroke="none" d="M 7718,8766 L 150,8766 150,149 15285,149 15285,8766 7718,8766 Z"/>
 <path fill="none" stroke="rgb(0,0,0)" stroke-width="99" stroke-linejoin="round" d="M 7718,8766 L 150,8766 150,149 15285,149 15285,8766 7718,8766 Z"/>
 <path fill="none" stroke="rgb(179,179,179)" stroke-linejoin="round" d="M 7127,7953 L 2073,7953 2073,2297 12182,2297 12182,7953 7127,7953 Z"/>
 <path fill="none" stroke="rgb(179,179,179)" stroke-linejoin="round" d="M 12182,7952 L 2073,7952"/>
 <path fill="none" stroke="rgb(179,179,179)" stroke-linejoin="round" d="M 12182,7244 L 2073,7244"/>
 <path fill="none" stroke="rgb(179,179,179)" stroke-linejoin="round" d="M 12182,6537 L 2073,6537"/>
 <path fill="none" stroke="rgb(179,179,179)" stroke-linejoin="round" d="M 12182,5831 L 2073,5831"/>
 <path fill="none" stroke="rgb(179,179,179)" stroke-linejoin="round" d="M 12182,5124 L 2073,5124"/>
 <path fill="none" stroke="rgb(179,179,179)" stroke-linejoin="round" d="M 12182,4416 L 2073,4416"/>
 <path fill="none" stroke="rgb(179,179,179)" stroke-linejoin="round" d="M 12182,3709 L 2073,3709"/>
 <path fill="none" stroke="rgb(179,179,179)" stroke-linejoin="round" d="M 12182,3002 L 2073,3002"/>
 <path fill="none" stroke="rgb(179,179,179)" stroke-linejoin="round" d="M 12182,2296 L 2073,2296"/>
 <path fill="none" stroke="rgb(179,179,179)" stroke-linejoin="round" d="M 2073,8100 L 2073,7952"/>
 <path fill="none" stroke="rgb(179,179,179)" stroke-linejoin="round" d="M 2073,8100 L 2073,7952"/>
 <path fill="none" stroke="rgb(179,179,179)" stroke-linejoin="round" d="M 12182,8100 L 12182,7952"/>
 <path fill="none" stroke="rgb(179,179,179)" stroke-linejoin="round" d="M 12182,8100 L 12182,7952"/>
 <path fill="none" stroke="rgb(179,179,179)" stroke-linejoin="round" d="M 2073,7952 L 12182,7952"/>
 <path fill="none" stroke="rgb(179,179,179)" stroke-linejoin="round" d="M 1924,7952 L 2073,7952"/>
 <path fill="none" stroke="rgb(179,179,179)" stroke-linejoin="round" d="M 1924,7952 L 2073,7952"/>
 <path fill="none" stroke="rgb(179,179,179)" stroke-linejoin="round" d="M 1924,7244 L 2073,7244"/>
 <path fill="none" stroke="rgb(179,179,179)" stroke-linejoin="round" d="M 1924,7244 L 2073,7244"/>
 <path fill="none" stroke="rgb(179,179,179)" stroke-linejoin="round" d="M 1924,6537 L 2073,6537"/>
 <path fill="none" stroke="rgb(179,179,179)" stroke-linejoin="round" d="M 1924,6537 L 2073,6537"/>
 <path fill="none" stroke="rgb(179,179,179)" stroke-linejoin="round" d="M 1924,5831 L 2073,5831"/>
 <path fill="none" stroke="rgb(179,179,179)" stroke-linejoin="round" d="M 1924,5831 L 2073,5831"/>
 <path fill="none" stroke="rgb(179,179,179)" stroke-linejoin="round" d="M 1924,5124 L 2073,5124"/>
 <path fill="none" stroke="rgb(179,179,179)" stroke-linejoin="round" d="M 1924,5124 L 2073,5124"/>
 <path fill="none" stroke="rgb(179,179,179)" stroke-linejoin="round" d="M 1924,4416 L 2073,4416"/>
 <path fill="none" stroke="rgb(179,179,179)" stroke-linejoin="round" d="M 1924,4416 L 2073,4416"/>
 <path fill="none" stroke="rgb(179,179,179)" stroke-linejoin="round" d="M 1924,3709 L 2073,3709"/>
 <path fill="none" stroke="rgb(179,179,179)" stroke-linejoin="round" d="M 1924,3709 L 2073,3709"/>
 <path fill="none" stroke="rgb(179,179,179)" stroke-linejoin="round" d="M 1924,3002 L 2073,3002"/>
 <path fill="none" stroke="rgb(179,179,179)" stroke-linejoin="round" d="M 1924,3002 L 2073,3002"/>
 <path fill="none" stroke="rgb(179,179,179)" stroke-linejoin="round" d="M 1924,2296 L 2073,2296"/>
 <path fill="none" stroke="rgb(179,179,179)" stroke-linejoin="round" d="M 1924,2296 L 2073,2296"/>
 <path fill="none" stroke="rgb(179,179,179)" stroke-linejoin="round" d="M 2073,7952 L 2073,2296"/>
 <path fill="rgb(0,132,209)" stroke="none" d="M 3083,7952 L 5105,7952 5105,6297 3083,6297 3083,7952 Z"/>
 <path fill="none" stroke="rgb(0,0,0)" stroke-width="99" stroke-linejoin="round" d="M 3083,7952 L 5105,7952 5105,6297 3083,6297 3083,7952 Z"/>
 <path fill="rgb(255,66,14)" stroke="none" d="M 5105,7952 L 7127,7952 7127,5986 5105,5986 5105,7952 Z"/>
 <path fill="none" stroke="rgb(0,0,0)" stroke-width="99" stroke-linejoin="round" d="M 5105,7952 L 7127,7952 7127,5986 5105,5986 5105,7952 Z"/>
 <path fill="rgb(255,211,32)" stroke="none" d="M 7127,7952 L 9149,7952 9149,5169 7127,5169 7127,7952 Z"/>
 <path fill="none" stroke="rgb(0,0,0)" stroke-width="99" stroke-linejoin="round" d="M 7127,7952 L 9149,7952 9149,5169 7127,5169 7127,7952 Z"/>
 <path fill="rgb(87,157,28)" stroke="none" d="M 9149,7952 L 11171,7952 11171,3260 9149,3260 9149,7952 Z"/>
 <path fill="none" stroke="rgb(0,0,0)" stroke-width="99" stroke-linejoin="round" d="M 9149,7952 L 11171,7952 11171,3260 9149,3260 9149,7952 Z"/>
 <text class="TextShape"><tspan class="TextParagraph" font-family="Liberation Sans, sans-serif" font-size="349px" font-weight="400"><tspan class="TextPosition" x="7075" y="8513"><tspan fill="rgb(0,0,0)" stroke="none">`</tspan></tspan></tspan></text>
 <text class="TextShape"><tspan class="TextParagraph" font-family="Liberation Sans, sans-serif" font-size="349px" font-weight="400"><tspan class="TextPosition" x="1457" y="8071"><tspan fill="rgb(0,0,0)" stroke="none">40</tspan></tspan></tspan></text>
 <text class="TextShape"><tspan class="TextParagraph" font-family="Liberation Sans, sans-serif" font-size="349px" font-weight="400"><tspan class="TextPosition" x="1457" y="7363"><tspan fill="rgb(0,0,0)" stroke="none">42</tspan></tspan></tspan></text>
 <text class="TextShape"><tspan class="TextParagraph" font-family="Liberation Sans, sans-serif" font-size="349px" font-weight="400"><tspan class="TextPosition" x="1457" y="6657"><tspan fill="rgb(0,0,0)" stroke="none">44</tspan></tspan></tspan></text>
 <text class="TextShape"><tspan class="TextParagraph" font-family="Liberation Sans, sans-serif" font-size="349px" font-weight="400"><tspan class="TextPosition" x="1457" y="5950"><tspan fill="rgb(0,0,0)" stroke="none">46</tspan></tspan></tspan></text>
 <text class="TextShape"><tspan class="TextParagraph" font-family="Liberation Sans, sans-serif" font-size="349px" font-weight="400"><tspan class="TextPosition" x="1457" y="5243"><tspan fill="rgb(0,0,0)" stroke="none">48</tspan></tspan></tspan></text>
 <text class="TextShape"><tspan class="TextParagraph" font-family="Liberation Sans, sans-serif" font-size="349px" font-weight="400"><tspan class="TextPosition" x="1457" y="4535"><tspan fill="rgb(0,0,0)" stroke="none">50</tspan></tspan></tspan></text>
 <text class="TextShape"><tspan class="TextParagraph" font-family="Liberation Sans, sans-serif" font-size="349px" font-weight="400"><tspan class="TextPosition" x="1457" y="3828"><tspan fill="rgb(0,0,0)" stroke="none">52</tspan></tspan></tspan></text>
 <text class="TextShape"><tspan class="TextParagraph" font-family="Liberation Sans, sans-serif" font-size="349px" font-weight="400"><tspan class="TextPosition" x="1457" y="3121"><tspan fill="rgb(0,0,0)" stroke="none">54</tspan></tspan></tspan></text>
 <text class="TextShape"><tspan class="TextParagraph" font-family="Liberation Sans, sans-serif" font-size="349px" font-weight="400"><tspan class="TextPosition" x="1457" y="2415"><tspan fill="rgb(0,0,0)" stroke="none">56</tspan></tspan></tspan></text>
 <text class="TextShape"><tspan class="TextParagraph" font-family="Liberation Sans, sans-serif" font-size="349px" font-weight="400"><tspan class="TextPosition" x="3674" y="6121"><tspan fill="rgb(0,0,0)" stroke="none">44.68</tspan></tspan></tspan></text>
 <text class="TextShape"><tspan class="TextParagraph" font-family="Liberation Sans, sans-serif" font-size="349px" font-weight="400"><tspan class="TextPosition" x="5695" y="5810"><tspan fill="rgb(0,0,0)" stroke="none">45.56</tspan></tspan></tspan></text>
 <text class="TextShape"><tspan class="TextParagraph" font-family="Liberation Sans, sans-serif" font-size="349px" font-weight="400"><tspan class="TextPosition" x="7717" y="4993"><tspan fill="rgb(0,0,0)" stroke="none">47.87</tspan></tspan></tspan></text>
 <text class="TextShape"><tspan class="TextParagraph" font-family="Liberation Sans, sans-serif" font-size="349px" font-weight="400"><tspan class="TextPosition" x="9739" y="3084"><tspan fill="rgb(0,0,0)" stroke="none">53.27</tspan></tspan></tspan></text>
 <text class="TextShape"><tspan class="TextParagraph" font-family="Liberation Sans, sans-serif" font-size="454px" font-weight="400"><tspan class="TextPosition" x="6969" y="1011"><tspan fill="rgb(0,0,0)" stroke="none">Results</tspan></tspan></tspan></text>
 <text class="TextShape"><tspan class="TextParagraph" font-family="Liberation Sans, sans-serif" font-size="384px" font-weight="400"><tspan class="TextPosition" x="5996" y="1905"><tspan fill="rgb(0,0,0)" stroke="none">CRF vs LSTM-CRF</tspan></tspan></tspan></text>
 <path fill="rgb(0,132,209)" stroke="none" d="M 12705,3823 L 12600,3823 12600,3614 12810,3614 12810,3823 12705,3823 Z"/>
 <path fill="none" stroke="rgb(0,0,0)" stroke-linejoin="round" d="M 12705,3823 L 12600,3823 12600,3614 12810,3614 12810,3823 12705,3823 Z"/>
 <path fill="rgb(255,66,14)" stroke="none" d="M 12705,4315 L 12600,4315 12600,4107 12810,4107 12810,4315 12705,4315 Z"/>
 <path fill="none" stroke="rgb(0,0,0)" stroke-linejoin="round" d="M 12705,4315 L 12600,4315 12600,4107 12810,4107 12810,4315 12705,4315 Z"/>
 <path fill="rgb(255,211,32)" stroke="none" d="M 12705,4807 L 12600,4807 12600,4599 12810,4599 12810,4807 12705,4807 Z"/>
 <path fill="none" stroke="rgb(0,0,0)" stroke-linejoin="round" d="M 12705,4807 L 12600,4807 12600,4599 12810,4599 12810,4807 12705,4807 Z"/>
 <path fill="rgb(87,157,28)" stroke="none" d="M 12705,5300 L 12600,5300 12600,5091 12810,5091 12810,5300 12705,5300 Z"/>
 <path fill="none" stroke="rgb(0,0,0)" stroke-linejoin="round" d="M 12705,5300 L 12600,5300 12600,5091 12810,5091 12810,5300 12705,5300 Z"/>
 <text class="TextShape"><tspan class="TextParagraph" font-family="Liberation Sans, sans-serif" font-size="349px" font-weight="400"><tspan class="TextPosition" x="12909" y="3837"><tspan fill="rgb(0,0,0)" stroke="none">crf_baseline1</tspan></tspan></tspan></text>
 <text class="TextShape"><tspan class="TextParagraph" font-family="Liberation Sans, sans-serif" font-size="349px" font-weight="400"><tspan class="TextPosition" x="12909" y="4329"><tspan fill="rgb(0,0,0)" stroke="none">crf_baseline2</tspan></tspan></tspan></text>
 <text class="TextShape"><tspan class="TextParagraph" font-family="Liberation Sans, sans-serif" font-size="349px" font-weight="400"><tspan class="TextPosition" x="12909" y="4821"><tspan fill="rgb(0,0,0)" stroke="none">crf_baseline3</tspan></tspan></tspan></text>
 <text class="TextShape"><tspan class="TextParagraph" font-family="Liberation Sans, sans-serif" font-size="349px" font-weight="400"><tspan class="TextPosition" x="12909" y="5314"><tspan fill="rgb(0,0,0)" stroke="none">lstm_crf_final</tspan></tspan></tspan></text>
 <text class="TextShape"><tspan class="TextParagraph" font-family="Liberation Sans, sans-serif" font-size="316px" font-weight="400"><tspan class="TextPosition" x="982" y="6000" transform="translate(982,6000) rotate(-90) translate(-982,-6000)"><tspan fill="rgb(0,0,0)" stroke="none">F1-Score</tspan></tspan></tspan></text>
</svg>