<?xml version="1.0" encoding="UTF-8"?>
<!DOCTYPE svg PUBLIC "-//W3C//DTD SVG 1.1//EN" "http://www.w3.org/Graphics/SVG/1.1/DTD/svg11.dtd">
<svg width="160mm" height="90mm" viewBox="0 0 16000 9000" version="1.1" baseProfile="tiny" xmlns="http://www.w3.org/2000/svg" stroke-width="28.222" stroke-linejoin="round" xml:space="preserve">
 <path fill="rgb(255,255,255)" stroke="none" d="M 8000,9015 L 0,9015 0,16 15999,16 15999,9015 8000,9015 Z"/>
 <path fill="none" stroke="rgb(179,179,179)" stroke-linejoin="round" d="M 7711,7655 L 1952,7655 1952,1516 13469,1516 13469,7655 7711,7655 Z"/>
 <path fill="none" stroke="rgb(179,179,179)" stroke-linejoin="round" d="M 13469,7654 L 1952,7654"/>
 <path fill="none" stroke="rgb(179,179,179)" stroke-linejoin="round" d="M 13469,6630 L 1952,6630"/>
 <path fill="none" stroke="rgb(179,179,179)" stroke-linejoin="round" d="M 13469,5607 L 1952,5607"/>
 <path fill="none" stroke="rgb(179,179,179)" stroke-linejoin="round" d="M 13469,4584 L 1952,4584"/>
 <path fill="none" stroke="rgb(179,179,179)" stroke-linejoin="round" d="M 13469,3561 L 1952,3561"/>
 <path fill="none" stroke="rgb(179,179,179)" stroke-linejoin="round" d="M 13469,2538 L 1952,2538"/>
 <path fill="none" stroke="rgb(179,179,179)" stroke-linejoin="round" d="M 13469,1515 L 1952,1515"/>
 <path fill="none" stroke="rgb(179,179,179)" stroke-linejoin="round" d="M 1952,7804 L 1952,7654"/>
 <path fill="none" stroke="rgb(179,179,179)" stroke-linejoin="round" d="M 1952,7804 L 1952,7654"/>
 <path fill="none" stroke="rgb(179,179,179)" stroke-linejoin="round" d="M 13469,7804 L 13469,7654"/>
 <path fill="none" stroke="rgb(179,179,179)" stroke-linejoin="round" d="M 13469,7804 L 13469,7654"/>
 <path fill="none" stroke="rgb(179,179,179)" stroke-linejoin="round" d="M 1952,7654 L 13469,7654"/>
 <path fill="none" stroke="rgb(179,179,179)" stroke-linejoin="round" d="M 1802,7654 L 1952,7654"/>
 <path fill="none" stroke="rgb(179,179,179)" stroke-linejoin="round" d="M 1802,7654 L 1952,7654"/>
 <path fill="none" stroke="rgb(179,179,179)" stroke-linejoin="round" d="M 1802,6630 L 1952,6630"/>
 <path fill="none" stroke="rgb(179,179,179)" stroke-linejoin="round" d="M 1802,6630 L 1952,6630"/>
 <path fill="none" stroke="rgb(179,179,179)" stroke-linejoin="round" d="M 1802,5607 L 1952,5607"/>
 <path fill="none" stroke="rgb(179,179,179)" stroke-linejoin="round" d="M 1802,5607 L 1952,5607"/>
 <path fill="none" stroke="rgb(179,179,179)" stroke-linejoin="round" d="M 1802,4584 L 1952,4584"/>
 <path fill="none" stroke="rgb(179,179,179)" stroke-linejoin="round" d="M 1802,4584 L 1952,4584"/>
 <path fill="none" stroke="rgb(179,179,179)" stroke-linejoin="round" d="M 1802,3561 L 1952,3561"/>
 <path fill="none" stroke="rgb(179,179,179)" stroke-linejoin="round" d="M 1802,3561 L 1952,3561"/>
 <path fill="none" stroke="rgb(179,179,179)" stroke-linejoin="round" d="M 1802,2538 L 1952,2538"/>
 <path fill="none" stroke="rgb(179,179,179)" stroke-linejoin="round" d="M 1802,2538 L 1952,2538"/>
 <path fill="none" stroke="rgb(179,179,179)" stroke-linejoin="round" d="M 1802,1515 L 1952,1515"/>
 <path fill="none" stroke="rgb(179,179,179)" stroke-linejoin="round" d="M 1802,1515 L 1952,1515"/>
 <path fill="none" stroke="rgb(179,179,179)" stroke-linejoin="round" d="M 1952,7654 L 1952,1515"/>
 <path fill="rgb(0,69,134)" stroke="none" d="M 3391,7654 L 6271,7654 6271,5934 3391,5934 3391,7654 Z"/>
 <path fill="rgb(255,66,14)" stroke="none" d="M 6271,7654 L 9149,7654 9149,5034 6271,5034 6271,7654 Z"/>
 <path fill="rgb(255,211,32)" stroke="none" d="M 9149,7654 L 12029,7654 12029,2671 9149,2671 9149,7654 Z"/>
 <text class="TextShape"><tspan class="TextParagraph" font-family="Liberation Sans" font-size="353px" font-weight="400"><tspan class="TextPosition" x="1332" y="7775"><tspan fill="rgb(0,0,0)" stroke="none">43</tspan></tspan></tspan></text>
 <text class="TextShape"><tspan class="TextParagraph" font-family="Liberation Sans" font-size="353px" font-weight="400"><tspan class="TextPosition" x="1332" y="6751"><tspan fill="rgb(0,0,0)" stroke="none">44</tspan></tspan></tspan></text>
 <text class="TextShape"><tspan class="TextParagraph" font-family="Liberation Sans" font-size="353px" font-weight="400"><tspan class="TextPosition" x="1332" y="5728"><tspan fill="rgb(0,0,0)" stroke="none">45</tspan></tspan></tspan></text>
 <text class="TextShape"><tspan class="TextParagraph" font-family="Liberation Sans" font-size="353px" font-weight="400"><tspan class="TextPosition" x="1332" y="4705"><tspan fill="rgb(0,0,0)" stroke="none">46</tspan></tspan></tspan></text>
 <text class="TextShape"><tspan class="TextParagraph" font-family="Liberation Sans" font-size="353px" font-weight="400"><tspan class="TextPosition" x="1332" y="3681"><tspan fill="rgb(0,0,0)" stroke="none">47</tspan></tspan></tspan></text>
 <text class="TextShape"><tspan class="TextParagraph" font-family="Liberation Sans" font-size="353px" font-weight="400"><tspan class="TextPosition" x="1332" y="2658"><tspan fill="rgb(0,0,0)" stroke="none">48</tspan></tspan></tspan></text>
 <text class="TextShape"><tspan class="TextParagraph" font-family="Liberation Sans" font-size="353px" font-weight="400"><tspan class="TextPosition" x="1332" y="1635"><tspan fill="rgb(0,0,0)" stroke="none">49</tspan></tspan></tspan></text>
 <text class="TextShape"><tspan class="TextParagraph" font-family="Liberation Sans" font-size="353px" font-weight="400"><tspan class="TextPosition" x="4407" y="5756"><tspan fill="rgb(0,0,0)" stroke="none">44.68</tspan></tspan></tspan></text>
 <text class="TextShape"><tspan class="TextParagraph" font-family="Liberation Sans" font-size="353px" font-weight="400"><tspan class="TextPosition" x="7287" y="4856"><tspan fill="rgb(0,0,0)" stroke="none">45.56</tspan></tspan></tspan></text>
 <text class="TextShape"><tspan class="TextParagraph" font-family="Liberation Sans" font-size="353px" font-weight="400"><tspan class="TextPosition" x="10166" y="2493"><tspan fill="rgb(0,0,0)" stroke="none">47.87</tspan></tspan></tspan></text>
 <text class="TextShape"><tspan class="TextParagraph" font-family="Liberation Sans" font-size="459px" font-weight="400"><tspan class="TextPosition" x="6029" y="893"><tspan fill="rgb(0,0,0)" stroke="none">Combined F1-Score</tspan></tspan></tspan></text>
 <path fill="rgb(0,69,134)" stroke="none" d="M 14011,4123 L 13905,4123 13905,3912 14116,3912 14116,4123 14011,4123 Z"/>
 <path fill="rgb(255,66,14)" stroke="none" d="M 14011,4620 L 13905,4620 13905,4410 14116,4410 14116,4620 14011,4620 Z"/>
 <path fill="rgb(255,211,32)" stroke="none" d="M 14011,5118 L 13905,5118 13905,4907 14116,4907 14116,5118 14011,5118 Z"/>
 <text class="TextShape"><tspan class="TextParagraph" font-family="Liberation Sans" font-size="353px" font-weight="400"><tspan class="TextPosition" x="14216" y="4137"><tspan fill="rgb(0,0,0)" stroke="none">baseline1</tspan></tspan></tspan></text>
 <text class="TextShape"><tspan class="TextParagraph" font-family="Liberation Sans" font-size="353px" font-weight="400"><tspan class="TextPosition" x="14216" y="4634"><tspan fill="rgb(0,0,0)" stroke="none">baseline2</tspan></tspan></tspan></text>
 <text class="TextShape"><tspan class="TextParagraph" font-family="Liberation Sans" font-size="353px" font-weight="400"><tspan class="TextPosition" x="14216" y="5132"><tspan fill="rgb(0,0,0)" stroke="none">baseline3</tspan></tspan></tspan></text>
 <text class="TextShape"><tspan class="TextParagraph" font-family="Liberation Sans" font-size="318px" font-weight="400"><tspan class="TextPosition" x="6871" y="8421"><tspan fill="rgb(0,0,0)" stroke="none">Models</tspan></tspan></tspan></text>
 <text class="TextShape"><tspan class="TextParagraph" font-family="Liberation Sans" font-size="318px" font-weight="400"><tspan class="TextPosition" x="837" y="5247" transform="translate(837,5247) rotate(-90) translate(-837,-5247)"><tspan fill="rgb(0,0,0)" stroke="none">F1-Score</tspan></tspan></tspan></text>
</svg>