<?xml version="1.0" encoding="UTF-8"?>
<!DOCTYPE svg PUBLIC "-//W3C//DTD SVG 1.1//EN" "http://www.w3.org/Graphics/SVG/1.1/DTD/svg11.dtd">
<svg width="160mm" height="90mm" viewBox="0 0 16000 9000" version="1.1" baseProfile="tiny" xmlns="http://www.w3.org/2000/svg" stroke-width="28.222" stroke-linejoin="round" xml:space="preserve">
 <path fill="rgb(255,255,255)" stroke="none" d="M 8064,9015 L 64,9015 64,16 16063,16 16063,9015 8064,9015 Z"/>
 <path fill="none" stroke="rgb(179,179,179)" stroke-linejoin="round" d="M 8013,7655 L 2493,7655 2493,1516 13533,1516 13533,7655 8013,7655 Z"/>
 <path fill="none" stroke="rgb(179,179,179)" stroke-linejoin="round" d="M 13533,7654 L 2493,7654"/>
 <path fill="none" stroke="rgb(179,179,179)" stroke-linejoin="round" d="M 13533,6630 L 2493,6630"/>
 <path fill="none" stroke="rgb(179,179,179)" stroke-linejoin="round" d="M 13533,5607 L 2493,5607"/>
 <path fill="none" stroke="rgb(179,179,179)" stroke-linejoin="round" d="M 13533,4584 L 2493,4584"/>
 <path fill="none" stroke="rgb(179,179,179)" stroke-linejoin="round" d="M 13533,3561 L 2493,3561"/>
 <path fill="none" stroke="rgb(179,179,179)" stroke-linejoin="round" d="M 13533,2538 L 2493,2538"/>
 <path fill="none" stroke="rgb(179,179,179)" stroke-linejoin="round" d="M 13533,1515 L 2493,1515"/>
 <path fill="none" stroke="rgb(179,179,179)" stroke-linejoin="round" d="M 2493,7804 L 2493,7654"/>
 <path fill="none" stroke="rgb(179,179,179)" stroke-linejoin="round" d="M 2493,7804 L 2493,7654"/>
 <path fill="none" stroke="rgb(179,179,179)" stroke-linejoin="round" d="M 13533,7804 L 13533,7654"/>
 <path fill="none" stroke="rgb(179,179,179)" stroke-linejoin="round" d="M 13533,7804 L 13533,7654"/>
 <path fill="none" stroke="rgb(179,179,179)" stroke-linejoin="round" d="M 2493,7654 L 13533,7654"/>
 <path fill="none" stroke="rgb(179,179,179)" stroke-linejoin="round" d="M 2343,7654 L 2493,7654"/>
 <path fill="none" stroke="rgb(179,179,179)" stroke-linejoin="round" d="M 2343,7654 L 2493,7654"/>
 <path fill="none" stroke="rgb(179,179,179)" stroke-linejoin="round" d="M 2343,6630 L 2493,6630"/>
 <path fill="none" stroke="rgb(179,179,179)" stroke-linejoin="round" d="M 2343,6630 L 2493,6630"/>
 <path fill="none" stroke="rgb(179,179,179)" stroke-linejoin="round" d="M 2343,5607 L 2493,5607"/>
 <path fill="none" stroke="rgb(179,179,179)" stroke-linejoin="round" d="M 2343,5607 L 2493,5607"/>
 <path fill="none" stroke="rgb(179,179,179)" stroke-linejoin="round" d="M 2343,4584 L 2493,4584"/>
 <path fill="none" stroke="rgb(179,179,179)" stroke-linejoin="round" d="M 2343,4584 L 2493,4584"/>
 <path fill="none" stroke="rgb(179,179,179)" stroke-linejoin="round" d="M 2343,3561 L 2493,3561"/>
 <path fill="none" stroke="rgb(179,179,179)" stroke-linejoin="round" d="M 2343,3561 L 2493,3561"/>
 <path fill="none" stroke="rgb(179,179,179)" stroke-linejoin="round" d="M 2343,2538 L 2493,2538"/>
 <path fill="none" stroke="rgb(179,179,179)" stroke-linejoin="round" d="M 2343,2538 L 2493,2538"/>
 <path fill="none" stroke="rgb(179,179,179)" stroke-linejoin="round" d="M 2343,1515 L 2493,1515"/>
 <path fill="none" stroke="rgb(179,179,179)" stroke-linejoin="round" d="M 2343,1515 L 2493,1515"/>
 <path fill="none" stroke="rgb(179,179,179)" stroke-linejoin="round" d="M 2493,7654 L 2493,1515"/>
 <path fill="rgb(0,69,134)" stroke="none" d="M 3873,7654 L 6633,7654 6633,3991 3873,3991 3873,7654 Z"/>
 <path fill="rgb(255,66,14)" stroke="none" d="M 6633,7654 L 9392,7654 9392,5443 6633,5443 6633,7654 Z"/>
 <path fill="rgb(255,211,32)" stroke="none" d="M 9392,7654 L 12152,7654 12152,2251 9392,2251 9392,7654 Z"/>
 <text class="TextShape"><tspan class="TextParagraph" font-family="Liberation Sans" font-size="353px" font-weight="400"><tspan class="TextPosition" x="1396" y="7775"><tspan fill="rgb(0,0,0)" stroke="none">0.745</tspan></tspan></tspan></text>
 <text class="TextShape"><tspan class="TextParagraph" font-family="Liberation Sans" font-size="353px" font-weight="400"><tspan class="TextPosition" x="1582" y="6751"><tspan fill="rgb(0,0,0)" stroke="none">0.75</tspan></tspan></tspan></text>
 <text class="TextShape"><tspan class="TextParagraph" font-family="Liberation Sans" font-size="353px" font-weight="400"><tspan class="TextPosition" x="1396" y="5728"><tspan fill="rgb(0,0,0)" stroke="none">0.755</tspan></tspan></tspan></text>
 <text class="TextShape"><tspan class="TextParagraph" font-family="Liberation Sans" font-size="353px" font-weight="400"><tspan class="TextPosition" x="1582" y="4705"><tspan fill="rgb(0,0,0)" stroke="none">0.76</tspan></tspan></tspan></text>
 <text class="TextShape"><tspan class="TextParagraph" font-family="Liberation Sans" font-size="353px" font-weight="400"><tspan class="TextPosition" x="1396" y="3681"><tspan fill="rgb(0,0,0)" stroke="none">0.765</tspan></tspan></tspan></text>
 <text class="TextShape"><tspan class="TextParagraph" font-family="Liberation Sans" font-size="353px" font-weight="400"><tspan class="TextPosition" x="1582" y="2658"><tspan fill="rgb(0,0,0)" stroke="none">0.77</tspan></tspan></tspan></text>
 <text class="TextShape"><tspan class="TextParagraph" font-family="Liberation Sans" font-size="353px" font-weight="400"><tspan class="TextPosition" x="1396" y="1635"><tspan fill="rgb(0,0,0)" stroke="none">0.775</tspan></tspan></tspan></text>
 <text class="TextShape"><tspan class="TextParagraph" font-family="Liberation Sans" font-size="353px" font-weight="400"><tspan class="TextPosition" x="4737" y="3813"><tspan fill="rgb(0,0,0)" stroke="none">0.7629</tspan></tspan></tspan></text>
 <text class="TextShape"><tspan class="TextParagraph" font-family="Liberation Sans" font-size="353px" font-weight="400"><tspan class="TextPosition" x="7497" y="5265"><tspan fill="rgb(0,0,0)" stroke="none">0.7558</tspan></tspan></tspan></text>
 <text class="TextShape"><tspan class="TextParagraph" font-family="Liberation Sans" font-size="353px" font-weight="400"><tspan class="TextPosition" x="10257" y="2073"><tspan fill="rgb(0,0,0)" stroke="none">0.7714</tspan></tspan></tspan></text>
 <text class="TextShape"><tspan class="TextParagraph" font-family="Liberation Sans" font-size="459px" font-weight="400"><tspan class="TextPosition" x="6079" y="893"><tspan fill="rgb(0,0,0)" stroke="none">Combined Accuracy</tspan></tspan></tspan></text>
 <path fill="rgb(0,69,134)" stroke="none" d="M 14075,4123 L 13969,4123 13969,3912 14180,3912 14180,4123 14075,4123 Z"/>
 <path fill="rgb(255,66,14)" stroke="none" d="M 14075,4620 L 13969,4620 13969,4410 14180,4410 14180,4620 14075,4620 Z"/>
 <path fill="rgb(255,211,32)" stroke="none" d="M 14075,5118 L 13969,5118 13969,4907 14180,4907 14180,5118 14075,5118 Z"/>
 <text class="TextShape"><tspan class="TextParagraph" font-family="Liberation Sans" font-size="353px" font-weight="400"><tspan class="TextPosition" x="14280" y="4137"><tspan fill="rgb(0,0,0)" stroke="none">baseline1</tspan></tspan></tspan></text>
 <text class="TextShape"><tspan class="TextParagraph" font-family="Liberation Sans" font-size="353px" font-weight="400"><tspan class="TextPosition" x="14280" y="4634"><tspan fill="rgb(0,0,0)" stroke="none">baseline2</tspan></tspan></tspan></text>
 <text class="TextShape"><tspan class="TextParagraph" font-family="Liberation Sans" font-size="353px" font-weight="400"><tspan class="TextPosition" x="14280" y="5132"><tspan fill="rgb(0,0,0)" stroke="none">baseline3</tspan></tspan></tspan></text>
 <text class="TextShape"><tspan class="TextParagraph" font-family="Liberation Sans" font-size="318px" font-weight="400"><tspan class="TextPosition" x="6935" y="8421"><tspan fill="rgb(0,0,0)" stroke="none">Models</tspan></tspan></tspan></text>
 <text class="TextShape"><tspan class="TextParagraph" font-family="Liberation Sans" font-size="318px" font-weight="400"><tspan class="TextPosition" x="901" y="5247" transform="translate(901,5247) rotate(-90) translate(-901,-5247)"><tspan fill="rgb(0,0,0)" stroke="none">Accuracy</tspan></tspan></tspan></text>
</svg>