<?xml version="1.0" encoding="UTF-8"?>
<!DOCTYPE svg PUBLIC "-//W3C//DTD SVG 1.1//EN" "http://www.w3.org/Graphics/SVG/1.1/DTD/svg11.dtd">
<svg width="160mm" height="90mm" viewBox="0 0 16000 9000" version="1.1" baseProfile="tiny" xmlns="http://www.w3.org/2000/svg" stroke-width="28.222" stroke-linejoin="round" xml:space="preserve">
 <path fill="rgb(255,255,255)" stroke="none" d="M 8064,8984 L 64,8984 64,-15 16063,-15 16063,8984 8064,8984 Z"/>
 <path fill="none" stroke="rgb(179,179,179)" stroke-linejoin="round" d="M 7920,7624 L 2307,7624 2307,1485 13533,1485 13533,7624 7920,7624 Z"/>
 <path fill="none" stroke="rgb(179,179,179)" stroke-linejoin="round" d="M 13533,7623 L 2307,7623"/>
 <path fill="none" stroke="rgb(179,179,179)" stroke-linejoin="round" d="M 13533,6940 L 2307,6940"/>
 <path fill="none" stroke="rgb(179,179,179)" stroke-linejoin="round" d="M 13533,6258 L 2307,6258"/>
 <path fill="none" stroke="rgb(179,179,179)" stroke-linejoin="round" d="M 13533,5576 L 2307,5576"/>
 <path fill="none" stroke="rgb(179,179,179)" stroke-linejoin="round" d="M 13533,4894 L 2307,4894"/>
 <path fill="none" stroke="rgb(179,179,179)" stroke-linejoin="round" d="M 13533,4212 L 2307,4212"/>
 <path fill="none" stroke="rgb(179,179,179)" stroke-linejoin="round" d="M 13533,3530 L 2307,3530"/>
 <path fill="none" stroke="rgb(179,179,179)" stroke-linejoin="round" d="M 13533,2848 L 2307,2848"/>
 <path fill="none" stroke="rgb(179,179,179)" stroke-linejoin="round" d="M 13533,2166 L 2307,2166"/>
 <path fill="none" stroke="rgb(179,179,179)" stroke-linejoin="round" d="M 13533,1484 L 2307,1484"/>
 <path fill="none" stroke="rgb(179,179,179)" stroke-linejoin="round" d="M 2307,7773 L 2307,7623"/>
 <path fill="none" stroke="rgb(179,179,179)" stroke-linejoin="round" d="M 2307,7773 L 2307,7623"/>
 <path fill="none" stroke="rgb(179,179,179)" stroke-linejoin="round" d="M 13533,7773 L 13533,7623"/>
 <path fill="none" stroke="rgb(179,179,179)" stroke-linejoin="round" d="M 13533,7773 L 13533,7623"/>
 <path fill="none" stroke="rgb(179,179,179)" stroke-linejoin="round" d="M 2307,7623 L 13533,7623"/>
 <path fill="none" stroke="rgb(179,179,179)" stroke-linejoin="round" d="M 2157,7623 L 2307,7623"/>
 <path fill="none" stroke="rgb(179,179,179)" stroke-linejoin="round" d="M 2157,7623 L 2307,7623"/>
 <path fill="none" stroke="rgb(179,179,179)" stroke-linejoin="round" d="M 2157,6940 L 2307,6940"/>
 <path fill="none" stroke="rgb(179,179,179)" stroke-linejoin="round" d="M 2157,6940 L 2307,6940"/>
 <path fill="none" stroke="rgb(179,179,179)" stroke-linejoin="round" d="M 2157,6258 L 2307,6258"/>
 <path fill="none" stroke="rgb(179,179,179)" stroke-linejoin="round" d="M 2157,6258 L 2307,6258"/>
 <path fill="none" stroke="rgb(179,179,179)" stroke-linejoin="round" d="M 2157,5576 L 2307,5576"/>
 <path fill="none" stroke="rgb(179,179,179)" stroke-linejoin="round" d="M 2157,5576 L 2307,5576"/>
 <path fill="none" stroke="rgb(179,179,179)" stroke-linejoin="round" d="M 2157,4894 L 2307,4894"/>
 <path fill="none" stroke="rgb(179,179,179)" stroke-linejoin="round" d="M 2157,4894 L 2307,4894"/>
 <path fill="none" stroke="rgb(179,179,179)" stroke-linejoin="round" d="M 2157,4212 L 2307,4212"/>
 <path fill="none" stroke="rgb(179,179,179)" stroke-linejoin="round" d="M 2157,4212 L 2307,4212"/>
 <path fill="none" stroke="rgb(179,179,179)" stroke-linejoin="round" d="M 2157,3530 L 2307,3530"/>
 <path fill="none" stroke="rgb(179,179,179)" stroke-linejoin="round" d="M 2157,3530 L 2307,3530"/>
 <path fill="none" stroke="rgb(179,179,179)" stroke-linejoin="round" d="M 2157,2848 L 2307,2848"/>
 <path fill="none" stroke="rgb(179,179,179)" stroke-linejoin="round" d="M 2157,2848 L 2307,2848"/>
 <path fill="none" stroke="rgb(179,179,179)" stroke-linejoin="round" d="M 2157,2166 L 2307,2166"/>
 <path fill="none" stroke="rgb(179,179,179)" stroke-linejoin="round" d="M 2157,2166 L 2307,2166"/>
 <path fill="none" stroke="rgb(179,179,179)" stroke-linejoin="round" d="M 2157,1484 L 2307,1484"/>
 <path fill="none" stroke="rgb(179,179,179)" stroke-linejoin="round" d="M 2157,1484 L 2307,1484"/>
 <path fill="none" stroke="rgb(179,179,179)" stroke-linejoin="round" d="M 2307,7623 L 2307,1484"/>
 <path fill="rgb(0,69,134)" stroke="none" d="M 3710,7623 L 6517,7623 6517,5474 3710,5474 3710,7623 Z"/>
 <path fill="rgb(255,66,14)" stroke="none" d="M 6517,7623 L 9322,7623 9322,2104 6517,2104 6517,7623 Z"/>
 <path fill="rgb(255,211,32)" stroke="none" d="M 9322,7623 L 12129,7623 12129,3776 9322,3776 9322,7623 Z"/>
 <text class="TextShape"><tspan class="TextParagraph" font-family="Liberation Sans" font-size="353px" font-weight="400"><tspan class="TextPosition" x="1396" y="7744"><tspan fill="rgb(0,0,0)" stroke="none">0.43</tspan></tspan></tspan></text>
 <text class="TextShape"><tspan class="TextParagraph" font-family="Liberation Sans" font-size="353px" font-weight="400"><tspan class="TextPosition" x="1396" y="7061"><tspan fill="rgb(0,0,0)" stroke="none">0.44</tspan></tspan></tspan></text>
 <text class="TextShape"><tspan class="TextParagraph" font-family="Liberation Sans" font-size="353px" font-weight="400"><tspan class="TextPosition" x="1396" y="6379"><tspan fill="rgb(0,0,0)" stroke="none">0.45</tspan></tspan></tspan></text>
 <text class="TextShape"><tspan class="TextParagraph" font-family="Liberation Sans" font-size="353px" font-weight="400"><tspan class="TextPosition" x="1396" y="5697"><tspan fill="rgb(0,0,0)" stroke="none">0.46</tspan></tspan></tspan></text>
 <text class="TextShape"><tspan class="TextParagraph" font-family="Liberation Sans" font-size="353px" font-weight="400"><tspan class="TextPosition" x="1396" y="5015"><tspan fill="rgb(0,0,0)" stroke="none">0.47</tspan></tspan></tspan></text>
 <text class="TextShape"><tspan class="TextParagraph" font-family="Liberation Sans" font-size="353px" font-weight="400"><tspan class="TextPosition" x="1396" y="4332"><tspan fill="rgb(0,0,0)" stroke="none">0.48</tspan></tspan></tspan></text>
 <text class="TextShape"><tspan class="TextParagraph" font-family="Liberation Sans" font-size="353px" font-weight="400"><tspan class="TextPosition" x="1396" y="3650"><tspan fill="rgb(0,0,0)" stroke="none">0.49</tspan></tspan></tspan></text>
 <text class="TextShape"><tspan class="TextParagraph" font-family="Liberation Sans" font-size="353px" font-weight="400"><tspan class="TextPosition" x="1581" y="2968"><tspan fill="rgb(0,0,0)" stroke="none">0.5</tspan></tspan></tspan></text>
 <text class="TextShape"><tspan class="TextParagraph" font-family="Liberation Sans" font-size="353px" font-weight="400"><tspan class="TextPosition" x="1396" y="2286"><tspan fill="rgb(0,0,0)" stroke="none">0.51</tspan></tspan></tspan></text>
 <text class="TextShape"><tspan class="TextParagraph" font-family="Liberation Sans" font-size="353px" font-weight="400"><tspan class="TextPosition" x="1396" y="1604"><tspan fill="rgb(0,0,0)" stroke="none">0.52</tspan></tspan></tspan></text>
 <text class="TextShape"><tspan class="TextParagraph" font-family="Liberation Sans" font-size="353px" font-weight="400"><tspan class="TextPosition" x="4597" y="5296"><tspan fill="rgb(0,0,0)" stroke="none">0.4615</tspan></tspan></tspan></text>
 <text class="TextShape"><tspan class="TextParagraph" font-family="Liberation Sans" font-size="353px" font-weight="400"><tspan class="TextPosition" x="7404" y="1926"><tspan fill="rgb(0,0,0)" stroke="none">0.5109</tspan></tspan></tspan></text>
 <text class="TextShape"><tspan class="TextParagraph" font-family="Liberation Sans" font-size="353px" font-weight="400"><tspan class="TextPosition" x="10211" y="3598"><tspan fill="rgb(0,0,0)" stroke="none">0.4864</tspan></tspan></tspan></text>
 <text class="TextShape"><tspan class="TextParagraph" font-family="Liberation Sans" font-size="459px" font-weight="400"><tspan class="TextPosition" x="6384" y="862"><tspan fill="rgb(0,0,0)" stroke="none">Combined Recall</tspan></tspan></tspan></text>
 <path fill="rgb(0,69,134)" stroke="none" d="M 14075,4092 L 13969,4092 13969,3881 14180,3881 14180,4092 14075,4092 Z"/>
 <path fill="rgb(255,66,14)" stroke="none" d="M 14075,4589 L 13969,4589 13969,4379 14180,4379 14180,4589 14075,4589 Z"/>
 <path fill="rgb(255,211,32)" stroke="none" d="M 14075,5087 L 13969,5087 13969,4876 14180,4876 14180,5087 14075,5087 Z"/>
 <text class="TextShape"><tspan class="TextParagraph" font-family="Liberation Sans" font-size="353px" font-weight="400"><tspan class="TextPosition" x="14280" y="4106"><tspan fill="rgb(0,0,0)" stroke="none">baseline1</tspan></tspan></tspan></text>
 <text class="TextShape"><tspan class="TextParagraph" font-family="Liberation Sans" font-size="353px" font-weight="400"><tspan class="TextPosition" x="14280" y="4603"><tspan fill="rgb(0,0,0)" stroke="none">baseline2</tspan></tspan></tspan></text>
 <text class="TextShape"><tspan class="TextParagraph" font-family="Liberation Sans" font-size="353px" font-weight="400"><tspan class="TextPosition" x="14280" y="5101"><tspan fill="rgb(0,0,0)" stroke="none">baseline3</tspan></tspan></tspan></text>
 <text class="TextShape"><tspan class="TextParagraph" font-family="Liberation Sans" font-size="318px" font-weight="400"><tspan class="TextPosition" x="6935" y="8390"><tspan fill="rgb(0,0,0)" stroke="none">Models</tspan></tspan></tspan></text>
 <text class="TextShape"><tspan class="TextParagraph" font-family="Liberation Sans" font-size="318px" font-weight="400"><tspan class="TextPosition" x="901" y="5017" transform="translate(901,5017) rotate(-90) translate(-901,-5017)"><tspan fill="rgb(0,0,0)" stroke="none">Recall</tspan></tspan></tspan></text>
</svg>