<?xml version="1.0" encoding="UTF-8"?>
<!DOCTYPE svg PUBLIC "-//W3C//DTD SVG 1.1//EN" "http://www.w3.org/Graphics/SVG/1.1/DTD/svg11.dtd">
<svg width="151mm" height="94mm" viewBox="0 0 15100 9400" version="1.1" baseProfile="tiny" xmlns="http://www.w3.org/2000/svg" stroke-width="28.222" stroke-linejoin="round" xml:space="preserve">
 <path fill="none" stroke="rgb(51,51,51)" stroke-width="100" stroke-linejoin="round" d="M 15,50 L 15006,50 15006,9389 15,9389 15,50 Z"/>
 <path fill="rgb(238,238,238)" stroke="none" d="M 7511,9290 L 115,9290 115,149 14906,149 14906,9290 7511,9290 Z"/>
 <path fill="none" stroke="rgb(0,0,0)" stroke-width="99" stroke-linejoin="round" d="M 7511,9290 L 115,9290 115,149 14906,149 14906,9290 7511,9290 Z"/>
 <path fill="none" stroke="rgb(179,179,179)" stroke-linejoin="round" d="M 6917,7523 L 1918,7523 1918,2646 11916,2646 11916,7523 6917,7523 Z"/>
 <path fill="none" stroke="rgb(179,179,179)" stroke-linejoin="round" d="M 11916,7522 L 1918,7522"/>
 <path fill="none" stroke="rgb(179,179,179)" stroke-linejoin="round" d="M 11916,6912 L 1918,6912"/>
 <path fill="none" stroke="rgb(179,179,179)" stroke-linejoin="round" d="M 11916,6302 L 1918,6302"/>
 <path fill="none" stroke="rgb(179,179,179)" stroke-linejoin="round" d="M 11916,5693 L 1918,5693"/>
 <path fill="none" stroke="rgb(179,179,179)" stroke-linejoin="round" d="M 11916,5084 L 1918,5084"/>
 <path fill="none" stroke="rgb(179,179,179)" stroke-linejoin="round" d="M 11916,4473 L 1918,4473"/>
 <path fill="none" stroke="rgb(179,179,179)" stroke-linejoin="round" d="M 11916,3864 L 1918,3864"/>
 <path fill="none" stroke="rgb(179,179,179)" stroke-linejoin="round" d="M 11916,3255 L 1918,3255"/>
 <path fill="none" stroke="rgb(179,179,179)" stroke-linejoin="round" d="M 11916,2645 L 1918,2645"/>
 <path fill="none" stroke="rgb(179,179,179)" stroke-linejoin="round" d="M 1918,7670 L 1918,7522"/>
 <path fill="none" stroke="rgb(179,179,179)" stroke-linejoin="round" d="M 1918,7670 L 1918,7522"/>
 <path fill="none" stroke="rgb(179,179,179)" stroke-linejoin="round" d="M 2335,7670 L 2335,7522"/>
 <path fill="none" stroke="rgb(179,179,179)" stroke-linejoin="round" d="M 2335,7670 L 2335,7522"/>
 <path fill="none" stroke="rgb(179,179,179)" stroke-linejoin="round" d="M 2751,7670 L 2751,7522"/>
 <path fill="none" stroke="rgb(179,179,179)" stroke-linejoin="round" d="M 2751,7670 L 2751,7522"/>
 <path fill="none" stroke="rgb(179,179,179)" stroke-linejoin="round" d="M 3168,7670 L 3168,7522"/>
 <path fill="none" stroke="rgb(179,179,179)" stroke-linejoin="round" d="M 3168,7670 L 3168,7522"/>
 <path fill="none" stroke="rgb(179,179,179)" stroke-linejoin="round" d="M 3584,7670 L 3584,7522"/>
 <path fill="none" stroke="rgb(179,179,179)" stroke-linejoin="round" d="M 3584,7670 L 3584,7522"/>
 <path fill="none" stroke="rgb(179,179,179)" stroke-linejoin="round" d="M 4000,7670 L 4000,7522"/>
 <path fill="none" stroke="rgb(179,179,179)" stroke-linejoin="round" d="M 4000,7670 L 4000,7522"/>
 <path fill="none" stroke="rgb(179,179,179)" stroke-linejoin="round" d="M 4417,7670 L 4417,7522"/>
 <path fill="none" stroke="rgb(179,179,179)" stroke-linejoin="round" d="M 4417,7670 L 4417,7522"/>
 <path fill="none" stroke="rgb(179,179,179)" stroke-linejoin="round" d="M 4834,7670 L 4834,7522"/>
 <path fill="none" stroke="rgb(179,179,179)" stroke-linejoin="round" d="M 4834,7670 L 4834,7522"/>
 <path fill="none" stroke="rgb(179,179,179)" stroke-linejoin="round" d="M 5251,7670 L 5251,7522"/>
 <path fill="none" stroke="rgb(179,179,179)" stroke-linejoin="round" d="M 5251,7670 L 5251,7522"/>
 <path fill="none" stroke="rgb(179,179,179)" stroke-linejoin="round" d="M 5667,7670 L 5667,7522"/>
 <path fill="none" stroke="rgb(179,179,179)" stroke-linejoin="round" d="M 5667,7670 L 5667,7522"/>
 <path fill="none" stroke="rgb(179,179,179)" stroke-linejoin="round" d="M 6083,7670 L 6083,7522"/>
 <path fill="none" stroke="rgb(179,179,179)" stroke-linejoin="round" d="M 6083,7670 L 6083,7522"/>
 <path fill="none" stroke="rgb(179,179,179)" stroke-linejoin="round" d="M 6500,7670 L 6500,7522"/>
 <path fill="none" stroke="rgb(179,179,179)" stroke-linejoin="round" d="M 6500,7670 L 6500,7522"/>
 <path fill="none" stroke="rgb(179,179,179)" stroke-linejoin="round" d="M 6917,7670 L 6917,7522"/>
 <path fill="none" stroke="rgb(179,179,179)" stroke-linejoin="round" d="M 6917,7670 L 6917,7522"/>
 <path fill="none" stroke="rgb(179,179,179)" stroke-linejoin="round" d="M 7333,7670 L 7333,7522"/>
 <path fill="none" stroke="rgb(179,179,179)" stroke-linejoin="round" d="M 7333,7670 L 7333,7522"/>
 <path fill="none" stroke="rgb(179,179,179)" stroke-linejoin="round" d="M 7750,7670 L 7750,7522"/>
 <path fill="none" stroke="rgb(179,179,179)" stroke-linejoin="round" d="M 7750,7670 L 7750,7522"/>
 <path fill="none" stroke="rgb(179,179,179)" stroke-linejoin="round" d="M 8166,7670 L 8166,7522"/>
 <path fill="none" stroke="rgb(179,179,179)" stroke-linejoin="round" d="M 8166,7670 L 8166,7522"/>
 <path fill="none" stroke="rgb(179,179,179)" stroke-linejoin="round" d="M 8583,7670 L 8583,7522"/>
 <path fill="none" stroke="rgb(179,179,179)" stroke-linejoin="round" d="M 8583,7670 L 8583,7522"/>
 <path fill="none" stroke="rgb(179,179,179)" stroke-linejoin="round" d="M 8999,7670 L 8999,7522"/>
 <path fill="none" stroke="rgb(179,179,179)" stroke-linejoin="round" d="M 8999,7670 L 8999,7522"/>
 <path fill="none" stroke="rgb(179,179,179)" stroke-linejoin="round" d="M 9416,7670 L 9416,7522"/>
 <path fill="none" stroke="rgb(179,179,179)" stroke-linejoin="round" d="M 9416,7670 L 9416,7522"/>
 <path fill="none" stroke="rgb(179,179,179)" stroke-linejoin="round" d="M 9833,7670 L 9833,7522"/>
 <path fill="none" stroke="rgb(179,179,179)" stroke-linejoin="round" d="M 9833,7670 L 9833,7522"/>
 <path fill="none" stroke="rgb(179,179,179)" stroke-linejoin="round" d="M 10249,7670 L 10249,7522"/>
 <path fill="none" stroke="rgb(179,179,179)" stroke-linejoin="round" d="M 10249,7670 L 10249,7522"/>
 <path fill="none" stroke="rgb(179,179,179)" stroke-linejoin="round" d="M 10665,7670 L 10665,7522"/>
 <path fill="none" stroke="rgb(179,179,179)" stroke-linejoin="round" d="M 10665,7670 L 10665,7522"/>
 <path fill="none" stroke="rgb(179,179,179)" stroke-linejoin="round" d="M 11082,7670 L 11082,7522"/>
 <path fill="none" stroke="rgb(179,179,179)" stroke-linejoin="round" d="M 11082,7670 L 11082,7522"/>
 <path fill="none" stroke="rgb(179,179,179)" stroke-linejoin="round" d="M 11498,7670 L 11498,7522"/>
 <path fill="none" stroke="rgb(179,179,179)" stroke-linejoin="round" d="M 11498,7670 L 11498,7522"/>
 <path fill="none" stroke="rgb(179,179,179)" stroke-linejoin="round" d="M 11916,7670 L 11916,7522"/>
 <path fill="none" stroke="rgb(179,179,179)" stroke-linejoin="round" d="M 11916,7670 L 11916,7522"/>
 <path fill="none" stroke="rgb(179,179,179)" stroke-linejoin="round" d="M 1918,7522 L 11916,7522"/>
 <path fill="none" stroke="rgb(179,179,179)" stroke-linejoin="round" d="M 1769,7522 L 1918,7522"/>
 <path fill="none" stroke="rgb(179,179,179)" stroke-linejoin="round" d="M 1769,7522 L 1918,7522"/>
 <path fill="none" stroke="rgb(179,179,179)" stroke-linejoin="round" d="M 1769,6912 L 1918,6912"/>
 <path fill="none" stroke="rgb(179,179,179)" stroke-linejoin="round" d="M 1769,6912 L 1918,6912"/>
 <path fill="none" stroke="rgb(179,179,179)" stroke-linejoin="round" d="M 1769,6302 L 1918,6302"/>
 <path fill="none" stroke="rgb(179,179,179)" stroke-linejoin="round" d="M 1769,6302 L 1918,6302"/>
 <path fill="none" stroke="rgb(179,179,179)" stroke-linejoin="round" d="M 1769,5693 L 1918,5693"/>
 <path fill="none" stroke="rgb(179,179,179)" stroke-linejoin="round" d="M 1769,5693 L 1918,5693"/>
 <path fill="none" stroke="rgb(179,179,179)" stroke-linejoin="round" d="M 1769,5084 L 1918,5084"/>
 <path fill="none" stroke="rgb(179,179,179)" stroke-linejoin="round" d="M 1769,5084 L 1918,5084"/>
 <path fill="none" stroke="rgb(179,179,179)" stroke-linejoin="round" d="M 1769,4473 L 1918,4473"/>
 <path fill="none" stroke="rgb(179,179,179)" stroke-linejoin="round" d="M 1769,4473 L 1918,4473"/>
 <path fill="none" stroke="rgb(179,179,179)" stroke-linejoin="round" d="M 1769,3864 L 1918,3864"/>
 <path fill="none" stroke="rgb(179,179,179)" stroke-linejoin="round" d="M 1769,3864 L 1918,3864"/>
 <path fill="none" stroke="rgb(179,179,179)" stroke-linejoin="round" d="M 1769,3255 L 1918,3255"/>
 <path fill="none" stroke="rgb(179,179,179)" stroke-linejoin="round" d="M 1769,3255 L 1918,3255"/>
 <path fill="none" stroke="rgb(179,179,179)" stroke-linejoin="round" d="M 1769,2645 L 1918,2645"/>
 <path fill="none" stroke="rgb(179,179,179)" stroke-linejoin="round" d="M 1769,2645 L 1918,2645"/>
 <path fill="none" stroke="rgb(179,179,179)" stroke-linejoin="round" d="M 1918,7522 L 1918,2645"/>
 <path fill="none" stroke="rgb(174,207,0)" stroke-width="79" stroke-linejoin="round" stroke-dasharray="158,158" d="M 1918,6531 L 2335,5126 2751,4248 3168,3897 3584,3717 4000,3650 4417,3556 4834,3521 5251,3495 5667,3460 6083,3454 6500,3428 6917,3425 7333,3425 7750,3451 8166,3456 8583,3440 8999,3426 9416,3438 9833,3454 10249,3428 10665,3427 11082,3443 11498,3448 11916,3434"/>
 <path fill="none" stroke="rgb(87,157,28)" stroke-width="79" stroke-linejoin="round" d="M 1918,6574 L 2335,5557 2751,5010 3168,4715 3584,4583 4000,4490 4417,4446 4834,4395 5251,4357 5667,4300 6083,4286 6500,4326 6917,4330 7333,4289 7750,4314 8166,4314 8583,4288 8999,4301 9416,4290 9833,4329 10249,4319 10665,4326 11082,4328 11498,4350 11916,4338"/>
 <text class="TextShape"><tspan class="TextParagraph" font-family="Liberation Sans, sans-serif" font-size="349px" font-weight="400"><tspan class="TextPosition" x="1827" y="8084"><tspan fill="rgb(0,0,0)" stroke="none">1</tspan></tspan></tspan></text>
 <text class="TextShape"><tspan class="TextParagraph" font-family="Liberation Sans, sans-serif" font-size="349px" font-weight="400"><tspan class="TextPosition" x="2243" y="8084"><tspan fill="rgb(0,0,0)" stroke="none">2</tspan></tspan></tspan></text>
 <text class="TextShape"><tspan class="TextParagraph" font-family="Liberation Sans, sans-serif" font-size="349px" font-weight="400"><tspan class="TextPosition" x="2659" y="8084"><tspan fill="rgb(0,0,0)" stroke="none">3</tspan></tspan></tspan></text>
 <text class="TextShape"><tspan class="TextParagraph" font-family="Liberation Sans, sans-serif" font-size="349px" font-weight="400"><tspan class="TextPosition" x="3076" y="8084"><tspan fill="rgb(0,0,0)" stroke="none">4</tspan></tspan></tspan></text>
 <text class="TextShape"><tspan class="TextParagraph" font-family="Liberation Sans, sans-serif" font-size="349px" font-weight="400"><tspan class="TextPosition" x="3492" y="8084"><tspan fill="rgb(0,0,0)" stroke="none">5</tspan></tspan></tspan></text>
 <text class="TextShape"><tspan class="TextParagraph" font-family="Liberation Sans, sans-serif" font-size="349px" font-weight="400"><tspan class="TextPosition" x="3908" y="8084"><tspan fill="rgb(0,0,0)" stroke="none">6</tspan></tspan></tspan></text>
 <text class="TextShape"><tspan class="TextParagraph" font-family="Liberation Sans, sans-serif" font-size="349px" font-weight="400"><tspan class="TextPosition" x="4326" y="8084"><tspan fill="rgb(0,0,0)" stroke="none">7</tspan></tspan></tspan></text>
 <text class="TextShape"><tspan class="TextParagraph" font-family="Liberation Sans, sans-serif" font-size="349px" font-weight="400"><tspan class="TextPosition" x="4742" y="8084"><tspan fill="rgb(0,0,0)" stroke="none">8</tspan></tspan></tspan></text>
 <text class="TextShape"><tspan class="TextParagraph" font-family="Liberation Sans, sans-serif" font-size="349px" font-weight="400"><tspan class="TextPosition" x="5159" y="8084"><tspan fill="rgb(0,0,0)" stroke="none">9</tspan></tspan></tspan></text>
 <text class="TextShape"><tspan class="TextParagraph" font-family="Liberation Sans, sans-serif" font-size="349px" font-weight="400"><tspan class="TextPosition" x="5484" y="8084"><tspan fill="rgb(0,0,0)" stroke="none">10</tspan></tspan></tspan></text>
 <text class="TextShape"><tspan class="TextParagraph" font-family="Liberation Sans, sans-serif" font-size="349px" font-weight="400"><tspan class="TextPosition" x="5900" y="8084"><tspan fill="rgb(0,0,0)" stroke="none">11</tspan></tspan></tspan></text>
 <text class="TextShape"><tspan class="TextParagraph" font-family="Liberation Sans, sans-serif" font-size="349px" font-weight="400"><tspan class="TextPosition" x="6317" y="8084"><tspan fill="rgb(0,0,0)" stroke="none">12</tspan></tspan></tspan></text>
 <text class="TextShape"><tspan class="TextParagraph" font-family="Liberation Sans, sans-serif" font-size="349px" font-weight="400"><tspan class="TextPosition" x="6733" y="8084"><tspan fill="rgb(0,0,0)" stroke="none">13</tspan></tspan></tspan></text>
 <text class="TextShape"><tspan class="TextParagraph" font-family="Liberation Sans, sans-serif" font-size="349px" font-weight="400"><tspan class="TextPosition" x="7149" y="8084"><tspan fill="rgb(0,0,0)" stroke="none">14</tspan></tspan></tspan></text>
 <text class="TextShape"><tspan class="TextParagraph" font-family="Liberation Sans, sans-serif" font-size="349px" font-weight="400"><tspan class="TextPosition" x="7567" y="8084"><tspan fill="rgb(0,0,0)" stroke="none">15</tspan></tspan></tspan></text>
 <text class="TextShape"><tspan class="TextParagraph" font-family="Liberation Sans, sans-serif" font-size="349px" font-weight="400"><tspan class="TextPosition" x="7983" y="8084"><tspan fill="rgb(0,0,0)" stroke="none">16</tspan></tspan></tspan></text>
 <text class="TextShape"><tspan class="TextParagraph" font-family="Liberation Sans, sans-serif" font-size="349px" font-weight="400"><tspan class="TextPosition" x="8400" y="8084"><tspan fill="rgb(0,0,0)" stroke="none">17</tspan></tspan></tspan></text>
 <text class="TextShape"><tspan class="TextParagraph" font-family="Liberation Sans, sans-serif" font-size="349px" font-weight="400"><tspan class="TextPosition" x="8816" y="8084"><tspan fill="rgb(0,0,0)" stroke="none">18</tspan></tspan></tspan></text>
 <text class="TextShape"><tspan class="TextParagraph" font-family="Liberation Sans, sans-serif" font-size="349px" font-weight="400"><tspan class="TextPosition" x="9232" y="8084"><tspan fill="rgb(0,0,0)" stroke="none">19</tspan></tspan></tspan></text>
 <text class="TextShape"><tspan class="TextParagraph" font-family="Liberation Sans, sans-serif" font-size="349px" font-weight="400"><tspan class="TextPosition" x="9649" y="8084"><tspan fill="rgb(0,0,0)" stroke="none">20</tspan></tspan></tspan></text>
 <text class="TextShape"><tspan class="TextParagraph" font-family="Liberation Sans, sans-serif" font-size="349px" font-weight="400"><tspan class="TextPosition" x="10066" y="8084"><tspan fill="rgb(0,0,0)" stroke="none">21</tspan></tspan></tspan></text>
 <text class="TextShape"><tspan class="TextParagraph" font-family="Liberation Sans, sans-serif" font-size="349px" font-weight="400"><tspan class="TextPosition" x="10482" y="8084"><tspan fill="rgb(0,0,0)" stroke="none">22</tspan></tspan></tspan></text>
 <text class="TextShape"><tspan class="TextParagraph" font-family="Liberation Sans, sans-serif" font-size="349px" font-weight="400"><tspan class="TextPosition" x="10899" y="8084"><tspan fill="rgb(0,0,0)" stroke="none">23</tspan></tspan></tspan></text>
 <text class="TextShape"><tspan class="TextParagraph" font-family="Liberation Sans, sans-serif" font-size="349px" font-weight="400"><tspan class="TextPosition" x="11315" y="8084"><tspan fill="rgb(0,0,0)" stroke="none">24</tspan></tspan></tspan></text>
 <text class="TextShape"><tspan class="TextParagraph" font-family="Liberation Sans, sans-serif" font-size="349px" font-weight="400"><tspan class="TextPosition" x="11732" y="8084"><tspan fill="rgb(0,0,0)" stroke="none">25</tspan></tspan></tspan></text>
 <text class="TextShape"><tspan class="TextParagraph" font-family="Liberation Sans, sans-serif" font-size="349px" font-weight="400"><tspan class="TextPosition" x="1486" y="7641"><tspan fill="rgb(0,0,0)" stroke="none">0</tspan></tspan></tspan></text>
 <text class="TextShape"><tspan class="TextParagraph" font-family="Liberation Sans, sans-serif" font-size="349px" font-weight="400"><tspan class="TextPosition" x="1303" y="7031"><tspan fill="rgb(0,0,0)" stroke="none">10</tspan></tspan></tspan></text>
 <text class="TextShape"><tspan class="TextParagraph" font-family="Liberation Sans, sans-serif" font-size="349px" font-weight="400"><tspan class="TextPosition" x="1303" y="6421"><tspan fill="rgb(0,0,0)" stroke="none">20</tspan></tspan></tspan></text>
 <text class="TextShape"><tspan class="TextParagraph" font-family="Liberation Sans, sans-serif" font-size="349px" font-weight="400"><tspan class="TextPosition" x="1303" y="5812"><tspan fill="rgb(0,0,0)" stroke="none">30</tspan></tspan></tspan></text>
 <text class="TextShape"><tspan class="TextParagraph" font-family="Liberation Sans, sans-serif" font-size="349px" font-weight="400"><tspan class="TextPosition" x="1303" y="5203"><tspan fill="rgb(0,0,0)" stroke="none">40</tspan></tspan></tspan></text>
 <text class="TextShape"><tspan class="TextParagraph" font-family="Liberation Sans, sans-serif" font-size="349px" font-weight="400"><tspan class="TextPosition" x="1303" y="4592"><tspan fill="rgb(0,0,0)" stroke="none">50</tspan></tspan></tspan></text>
 <text class="TextShape"><tspan class="TextParagraph" font-family="Liberation Sans, sans-serif" font-size="349px" font-weight="400"><tspan class="TextPosition" x="1303" y="3983"><tspan fill="rgb(0,0,0)" stroke="none">60</tspan></tspan></tspan></text>
 <text class="TextShape"><tspan class="TextParagraph" font-family="Liberation Sans, sans-serif" font-size="349px" font-weight="400"><tspan class="TextPosition" x="1303" y="3374"><tspan fill="rgb(0,0,0)" stroke="none">70</tspan></tspan></tspan></text>
 <text class="TextShape"><tspan class="TextParagraph" font-family="Liberation Sans, sans-serif" font-size="349px" font-weight="400"><tspan class="TextPosition" x="1303" y="2764"><tspan fill="rgb(0,0,0)" stroke="none">80</tspan></tspan></tspan></text>
 <text class="TextShape"><tspan class="TextParagraph" font-family="Liberation Sans, sans-serif" font-size="454px" font-weight="400"><tspan class="TextPosition" x="5619" y="1021"><tspan fill="rgb(0,0,0)" stroke="none">F1-Score by Epoch</tspan></tspan></tspan></text>
 <text class="TextShape"><tspan class="TextParagraph" font-family="Liberation Sans, sans-serif" font-size="384px" font-weight="400"><tspan class="TextPosition" x="6512" y="1926"><tspan fill="rgb(0,0,0)" stroke="none">LSTM-CRF</tspan></tspan></tspan></text>
 <path fill="none" stroke="rgb(174,207,0)" stroke-width="79" stroke-linejoin="round" stroke-dasharray="158,158" d="M 12314,4472 L 13903,4472"/>
 <path fill="none" stroke="rgb(87,157,28)" stroke-width="79" stroke-linejoin="round" d="M 12314,4965 L 13903,4965"/>
 <text class="TextShape"><tspan class="TextParagraph" font-family="Liberation Sans, sans-serif" font-size="349px" font-weight="400"><tspan class="TextPosition" x="14002" y="4591"><tspan fill="rgb(0,0,0)" stroke="none">dev</tspan></tspan></tspan></text>
 <text class="TextShape"><tspan class="TextParagraph" font-family="Liberation Sans, sans-serif" font-size="349px" font-weight="400"><tspan class="TextPosition" x="14002" y="5084"><tspan fill="rgb(0,0,0)" stroke="none">test</tspan></tspan></tspan></text>
 <text class="TextShape"><tspan class="TextParagraph" font-family="Liberation Sans, sans-serif" font-size="315px" font-weight="400"><tspan class="TextPosition" x="6242" y="8727"><tspan fill="rgb(0,0,0)" stroke="none">Epoch</tspan></tspan></tspan></text>
 <text class="TextShape"><tspan class="TextParagraph" font-family="Liberation Sans, sans-serif" font-size="316px" font-weight="400"><tspan class="TextPosition" x="834" y="5960" transform="translate(834,5960) rotate(-90) translate(-834,-5960)"><tspan fill="rgb(0,0,0)" stroke="none">F1-Score</tspan></tspan></tspan></text>
</svg>