<?xml version="1.0" encoding="UTF-8"?>
<!DOCTYPE svg PUBLIC "-//W3C//DTD SVG 1.1//EN" "http://www.w3.org/Graphics/SVG/1.1/DTD/svg11.dtd">
<svg width="172mm" height="98mm" viewBox="0 0 17200 9800" version="1.1" baseProfile="tiny" xmlns="http://www.w3.org/2000/svg" stroke-width="28.222" stroke-linejoin="round" xml:space="preserve">
 <path fill="rgb(255,255,255)" stroke="none" d="M 8616,9834 L 0,9834 0,0 17231,0 17231,9834 8616,9834 Z"/>
 <path fill="none" stroke="rgb(179,179,179)" stroke-linejoin="round" d="M 9617,6685 L 2347,6685 2347,1533 16887,1533 16887,6685 9617,6685 Z"/>
 <path fill="none" stroke="rgb(179,179,179)" stroke-linejoin="round" d="M 16887,6684 L 2347,6684"/>
 <path fill="none" stroke="rgb(179,179,179)" stroke-linejoin="round" d="M 16887,5825 L 2347,5825"/>
 <path fill="none" stroke="rgb(179,179,179)" stroke-linejoin="round" d="M 16887,4966 L 2347,4966"/>
 <path fill="none" stroke="rgb(179,179,179)" stroke-linejoin="round" d="M 16887,4108 L 2347,4108"/>
 <path fill="none" stroke="rgb(179,179,179)" stroke-linejoin="round" d="M 16887,3249 L 2347,3249"/>
 <path fill="none" stroke="rgb(179,179,179)" stroke-linejoin="round" d="M 16887,2390 L 2347,2390"/>
 <path fill="none" stroke="rgb(179,179,179)" stroke-linejoin="round" d="M 16887,1532 L 2347,1532"/>
 <path fill="none" stroke="rgb(179,179,179)" stroke-linejoin="round" d="M 2347,8265 L 2347,6684"/>
 <path fill="none" stroke="rgb(179,179,179)" stroke-linejoin="round" d="M 3112,8265 L 3112,6684"/>
 <path fill="none" stroke="rgb(179,179,179)" stroke-linejoin="round" d="M 3877,8265 L 3877,6684"/>
 <path fill="none" stroke="rgb(179,179,179)" stroke-linejoin="round" d="M 4642,8265 L 4642,6684"/>
 <path fill="none" stroke="rgb(179,179,179)" stroke-linejoin="round" d="M 5408,8265 L 5408,6684"/>
 <path fill="none" stroke="rgb(179,179,179)" stroke-linejoin="round" d="M 6173,8265 L 6173,6684"/>
 <path fill="none" stroke="rgb(179,179,179)" stroke-linejoin="round" d="M 6938,8265 L 6938,6684"/>
 <path fill="none" stroke="rgb(179,179,179)" stroke-linejoin="round" d="M 7704,8265 L 7704,6684"/>
 <path fill="none" stroke="rgb(179,179,179)" stroke-linejoin="round" d="M 8469,8265 L 8469,6684"/>
 <path fill="none" stroke="rgb(179,179,179)" stroke-linejoin="round" d="M 9233,8265 L 9233,6684"/>
 <path fill="none" stroke="rgb(179,179,179)" stroke-linejoin="round" d="M 9999,8265 L 9999,6684"/>
 <path fill="none" stroke="rgb(179,179,179)" stroke-linejoin="round" d="M 10764,8265 L 10764,6684"/>
 <path fill="none" stroke="rgb(179,179,179)" stroke-linejoin="round" d="M 11529,8265 L 11529,6684"/>
 <path fill="none" stroke="rgb(179,179,179)" stroke-linejoin="round" d="M 12295,8265 L 12295,6684"/>
 <path fill="none" stroke="rgb(179,179,179)" stroke-linejoin="round" d="M 13060,8265 L 13060,6684"/>
 <path fill="none" stroke="rgb(179,179,179)" stroke-linejoin="round" d="M 13825,8265 L 13825,6684"/>
 <path fill="none" stroke="rgb(179,179,179)" stroke-linejoin="round" d="M 14591,8265 L 14591,6684"/>
 <path fill="none" stroke="rgb(179,179,179)" stroke-linejoin="round" d="M 15356,8265 L 15356,6684"/>
 <path fill="none" stroke="rgb(179,179,179)" stroke-linejoin="round" d="M 16121,8265 L 16121,6684"/>
 <path fill="none" stroke="rgb(179,179,179)" stroke-linejoin="round" d="M 16887,8265 L 16887,6684"/>
 <path fill="none" stroke="rgb(179,179,179)" stroke-linejoin="round" d="M 2347,8558 L 2347,6684"/>
 <path fill="none" stroke="rgb(179,179,179)" stroke-linejoin="round" d="M 3112,8558 L 3112,6684"/>
 <path fill="none" stroke="rgb(179,179,179)" stroke-linejoin="round" d="M 3877,8558 L 3877,6684"/>
 <path fill="none" stroke="rgb(179,179,179)" stroke-linejoin="round" d="M 4642,8558 L 4642,6684"/>
 <path fill="none" stroke="rgb(179,179,179)" stroke-linejoin="round" d="M 5408,8558 L 5408,6684"/>
 <path fill="none" stroke="rgb(179,179,179)" stroke-linejoin="round" d="M 6173,8558 L 6173,6684"/>
 <path fill="none" stroke="rgb(179,179,179)" stroke-linejoin="round" d="M 6938,8558 L 6938,6684"/>
 <path fill="none" stroke="rgb(179,179,179)" stroke-linejoin="round" d="M 7704,8558 L 7704,6684"/>
 <path fill="none" stroke="rgb(179,179,179)" stroke-linejoin="round" d="M 8469,8558 L 8469,6684"/>
 <path fill="none" stroke="rgb(179,179,179)" stroke-linejoin="round" d="M 9233,8558 L 9233,6684"/>
 <path fill="none" stroke="rgb(179,179,179)" stroke-linejoin="round" d="M 9999,8558 L 9999,6684"/>
 <path fill="none" stroke="rgb(179,179,179)" stroke-linejoin="round" d="M 10764,8558 L 10764,6684"/>
 <path fill="none" stroke="rgb(179,179,179)" stroke-linejoin="round" d="M 11529,8558 L 11529,6684"/>
 <path fill="none" stroke="rgb(179,179,179)" stroke-linejoin="round" d="M 12295,8558 L 12295,6684"/>
 <path fill="none" stroke="rgb(179,179,179)" stroke-linejoin="round" d="M 13060,8558 L 13060,6684"/>
 <path fill="none" stroke="rgb(179,179,179)" stroke-linejoin="round" d="M 13825,8558 L 13825,6684"/>
 <path fill="none" stroke="rgb(179,179,179)" stroke-linejoin="round" d="M 14591,8558 L 14591,6684"/>
 <path fill="none" stroke="rgb(179,179,179)" stroke-linejoin="round" d="M 15356,8558 L 15356,6684"/>
 <path fill="none" stroke="rgb(179,179,179)" stroke-linejoin="round" d="M 16121,8558 L 16121,6684"/>
 <path fill="none" stroke="rgb(179,179,179)" stroke-linejoin="round" d="M 16887,8558 L 16887,6684"/>
 <path fill="none" stroke="rgb(179,179,179)" stroke-linejoin="round" d="M 2347,6834 L 2347,6684"/>
 <path fill="none" stroke="rgb(179,179,179)" stroke-linejoin="round" d="M 2347,6834 L 2347,6684"/>
 <path fill="none" stroke="rgb(179,179,179)" stroke-linejoin="round" d="M 3112,6834 L 3112,6684"/>
 <path fill="none" stroke="rgb(179,179,179)" stroke-linejoin="round" d="M 3112,6834 L 3112,6684"/>
 <path fill="none" stroke="rgb(179,179,179)" stroke-linejoin="round" d="M 3877,6834 L 3877,6684"/>
 <path fill="none" stroke="rgb(179,179,179)" stroke-linejoin="round" d="M 3877,6834 L 3877,6684"/>
 <path fill="none" stroke="rgb(179,179,179)" stroke-linejoin="round" d="M 4642,6834 L 4642,6684"/>
 <path fill="none" stroke="rgb(179,179,179)" stroke-linejoin="round" d="M 4642,6834 L 4642,6684"/>
 <path fill="none" stroke="rgb(179,179,179)" stroke-linejoin="round" d="M 5408,6834 L 5408,6684"/>
 <path fill="none" stroke="rgb(179,179,179)" stroke-linejoin="round" d="M 5408,6834 L 5408,6684"/>
 <path fill="none" stroke="rgb(179,179,179)" stroke-linejoin="round" d="M 6173,6834 L 6173,6684"/>
 <path fill="none" stroke="rgb(179,179,179)" stroke-linejoin="round" d="M 6173,6834 L 6173,6684"/>
 <path fill="none" stroke="rgb(179,179,179)" stroke-linejoin="round" d="M 6938,6834 L 6938,6684"/>
 <path fill="none" stroke="rgb(179,179,179)" stroke-linejoin="round" d="M 6938,6834 L 6938,6684"/>
 <path fill="none" stroke="rgb(179,179,179)" stroke-linejoin="round" d="M 7704,6834 L 7704,6684"/>
 <path fill="none" stroke="rgb(179,179,179)" stroke-linejoin="round" d="M 7704,6834 L 7704,6684"/>
 <path fill="none" stroke="rgb(179,179,179)" stroke-linejoin="round" d="M 8469,6834 L 8469,6684"/>
 <path fill="none" stroke="rgb(179,179,179)" stroke-linejoin="round" d="M 8469,6834 L 8469,6684"/>
 <path fill="none" stroke="rgb(179,179,179)" stroke-linejoin="round" d="M 9233,6834 L 9233,6684"/>
 <path fill="none" stroke="rgb(179,179,179)" stroke-linejoin="round" d="M 9233,6834 L 9233,6684"/>
 <path fill="none" stroke="rgb(179,179,179)" stroke-linejoin="round" d="M 9999,6834 L 9999,6684"/>
 <path fill="none" stroke="rgb(179,179,179)" stroke-linejoin="round" d="M 9999,6834 L 9999,6684"/>
 <path fill="none" stroke="rgb(179,179,179)" stroke-linejoin="round" d="M 10764,6834 L 10764,6684"/>
 <path fill="none" stroke="rgb(179,179,179)" stroke-linejoin="round" d="M 10764,6834 L 10764,6684"/>
 <path fill="none" stroke="rgb(179,179,179)" stroke-linejoin="round" d="M 11529,6834 L 11529,6684"/>
 <path fill="none" stroke="rgb(179,179,179)" stroke-linejoin="round" d="M 11529,6834 L 11529,6684"/>
 <path fill="none" stroke="rgb(179,179,179)" stroke-linejoin="round" d="M 12295,6834 L 12295,6684"/>
 <path fill="none" stroke="rgb(179,179,179)" stroke-linejoin="round" d="M 12295,6834 L 12295,6684"/>
 <path fill="none" stroke="rgb(179,179,179)" stroke-linejoin="round" d="M 13060,6834 L 13060,6684"/>
 <path fill="none" stroke="rgb(179,179,179)" stroke-linejoin="round" d="M 13060,6834 L 13060,6684"/>
 <path fill="none" stroke="rgb(179,179,179)" stroke-linejoin="round" d="M 13825,6834 L 13825,6684"/>
 <path fill="none" stroke="rgb(179,179,179)" stroke-linejoin="round" d="M 13825,6834 L 13825,6684"/>
 <path fill="none" stroke="rgb(179,179,179)" stroke-linejoin="round" d="M 14591,6834 L 14591,6684"/>
 <path fill="none" stroke="rgb(179,179,179)" stroke-linejoin="round" d="M 14591,6834 L 14591,6684"/>
 <path fill="none" stroke="rgb(179,179,179)" stroke-linejoin="round" d="M 15356,6834 L 15356,6684"/>
 <path fill="none" stroke="rgb(179,179,179)" stroke-linejoin="round" d="M 15356,6834 L 15356,6684"/>
 <path fill="none" stroke="rgb(179,179,179)" stroke-linejoin="round" d="M 16121,6834 L 16121,6684"/>
 <path fill="none" stroke="rgb(179,179,179)" stroke-linejoin="round" d="M 16121,6834 L 16121,6684"/>
 <path fill="none" stroke="rgb(179,179,179)" stroke-linejoin="round" d="M 16887,6834 L 16887,6684"/>
 <path fill="none" stroke="rgb(179,179,179)" stroke-linejoin="round" d="M 16887,6834 L 16887,6684"/>
 <path fill="none" stroke="rgb(179,179,179)" stroke-linejoin="round" d="M 2347,6684 L 16887,6684"/>
 <path fill="none" stroke="rgb(179,179,179)" stroke-linejoin="round" d="M 2197,6684 L 2347,6684"/>
 <path fill="none" stroke="rgb(179,179,179)" stroke-linejoin="round" d="M 2197,6684 L 2347,6684"/>
 <path fill="none" stroke="rgb(179,179,179)" stroke-linejoin="round" d="M 2197,5825 L 2347,5825"/>
 <path fill="none" stroke="rgb(179,179,179)" stroke-linejoin="round" d="M 2197,5825 L 2347,5825"/>
 <path fill="none" stroke="rgb(179,179,179)" stroke-linejoin="round" d="M 2197,4966 L 2347,4966"/>
 <path fill="none" stroke="rgb(179,179,179)" stroke-linejoin="round" d="M 2197,4966 L 2347,4966"/>
 <path fill="none" stroke="rgb(179,179,179)" stroke-linejoin="round" d="M 2197,4108 L 2347,4108"/>
 <path fill="none" stroke="rgb(179,179,179)" stroke-linejoin="round" d="M 2197,4108 L 2347,4108"/>
 <path fill="none" stroke="rgb(179,179,179)" stroke-linejoin="round" d="M 2197,3249 L 2347,3249"/>
 <path fill="none" stroke="rgb(179,179,179)" stroke-linejoin="round" d="M 2197,3249 L 2347,3249"/>
 <path fill="none" stroke="rgb(179,179,179)" stroke-linejoin="round" d="M 2197,2390 L 2347,2390"/>
 <path fill="none" stroke="rgb(179,179,179)" stroke-linejoin="round" d="M 2197,2390 L 2347,2390"/>
 <path fill="none" stroke="rgb(179,179,179)" stroke-linejoin="round" d="M 2197,1532 L 2347,1532"/>
 <path fill="none" stroke="rgb(179,179,179)" stroke-linejoin="round" d="M 2197,1532 L 2347,1532"/>
 <path fill="none" stroke="rgb(179,179,179)" stroke-linejoin="round" d="M 2347,6684 L 2347,1532"/>
 <path fill="rgb(0,69,134)" stroke="none" d="M 16313,6684 L 16695,6684 16695,6679 16313,6679 16313,6684 Z"/>
 <path fill="rgb(0,69,134)" stroke="none" d="M 15547,6684 L 15930,6684 15930,6675 15547,6675 15547,6684 Z"/>
 <path fill="rgb(0,69,134)" stroke="none" d="M 14782,6684 L 15165,6684 15165,6671 14782,6671 14782,6684 Z"/>
 <path fill="rgb(0,69,134)" stroke="none" d="M 14017,6684 L 14399,6684 14399,6666 14017,6666 14017,6684 Z"/>
 <path fill="rgb(0,69,134)" stroke="none" d="M 13251,6684 L 13634,6684 13634,6662 13251,6662 13251,6684 Z"/>
 <path fill="rgb(0,69,134)" stroke="none" d="M 12486,6684 L 12869,6684 12869,6623 12486,6623 12486,6684 Z"/>
 <path fill="rgb(0,69,134)" stroke="none" d="M 11721,6684 L 12103,6684 12103,6610 11721,6610 11721,6684 Z"/>
 <path fill="rgb(0,69,134)" stroke="none" d="M 10955,6684 L 11338,6684 11338,1888 10955,1888 10955,6684 Z"/>
 <path fill="rgb(119,33,111)" stroke="none" d="M 10190,6684 L 10573,6684 10573,6679 10190,6679 10190,6684 Z"/>
 <path fill="rgb(119,33,111)" stroke="none" d="M 9425,6684 L 9807,6684 9807,6671 9425,6671 9425,6684 Z"/>
 <path fill="rgb(119,33,111)" stroke="none" d="M 8659,6684 L 9042,6684 9042,6666 8659,6666 8659,6684 Z"/>
 <path fill="rgb(119,33,111)" stroke="none" d="M 7895,6684 L 8278,6684 8278,6666 7895,6666 7895,6684 Z"/>
 <path fill="rgb(119,33,111)" stroke="none" d="M 7130,6684 L 7512,6684 7512,6662 7130,6662 7130,6684 Z"/>
 <path fill="rgb(119,33,111)" stroke="none" d="M 6364,6684 L 6747,6684 6747,6546 6364,6546 6364,6684 Z"/>
 <path fill="rgb(119,33,111)" stroke="none" d="M 5599,6684 L 5982,6684 5982,6486 5599,6486 5599,6684 Z"/>
 <path fill="rgb(119,33,111)" stroke="none" d="M 4834,6684 L 5216,6684 5216,6447 4834,6447 4834,6684 Z"/>
 <path fill="rgb(119,33,111)" stroke="none" d="M 4068,6684 L 4451,6684 4451,5911 4068,5911 4068,6684 Z"/>
 <path fill="rgb(119,33,111)" stroke="none" d="M 3303,6684 L 3686,6684 3686,3713 3303,3713 3303,6684 Z"/>
 <path fill="rgb(119,33,111)" stroke="none" d="M 2538,6684 L 2920,6684 2920,2785 2538,2785 2538,6684 Z"/>
 <text class="TextShape"><tspan class="TextParagraph" font-family="Liberation Sans, sans-serif" font-size="353px" font-weight="400"><tspan class="TextPosition" x="2848" y="8364" transform="translate(2848,8364) rotate(-90) translate(-2848,-8364)"><tspan fill="rgb(0,0,0)" stroke="none"> </tspan></tspan><tspan class="TextPosition" x="2848" y="8258" transform="translate(2848,8258) rotate(-90) translate(-2848,-8258)"><tspan fill="rgb(0,0,0)" stroke="none">PROPN </tspan></tspan></tspan></text>
 <text class="TextShape"><tspan class="TextParagraph" font-family="Liberation Sans, sans-serif" font-size="353px" font-weight="400"><tspan class="TextPosition" x="3613" y="8126" transform="translate(3613,8126) rotate(-90) translate(-3613,-8126)"><tspan fill="rgb(0,0,0)" stroke="none"> </tspan></tspan><tspan class="TextPosition" x="3613" y="8020" transform="translate(3613,8020) rotate(-90) translate(-3613,-8020)"><tspan fill="rgb(0,0,0)" stroke="none">NOUN </tspan></tspan></tspan></text>
 <text class="TextShape"><tspan class="TextParagraph" font-family="Liberation Sans, sans-serif" font-size="353px" font-weight="400"><tspan class="TextPosition" x="4379" y="7808" transform="translate(4379,7808) rotate(-90) translate(-4379,-7808)"><tspan fill="rgb(0,0,0)" stroke="none"> </tspan></tspan><tspan class="TextPosition" x="4379" y="7702" transform="translate(4379,7702) rotate(-90) translate(-4379,-7702)"><tspan fill="rgb(0,0,0)" stroke="none">ADJ </tspan></tspan></tspan></text>
 <text class="TextShape"><tspan class="TextParagraph" font-family="Liberation Sans, sans-serif" font-size="353px" font-weight="400"><tspan class="TextPosition" x="5144" y="7808" transform="translate(5144,7808) rotate(-90) translate(-5144,-7808)"><tspan fill="rgb(0,0,0)" stroke="none"> </tspan></tspan><tspan class="TextPosition" x="5144" y="7702" transform="translate(5144,7702) rotate(-90) translate(-5144,-7702)"><tspan fill="rgb(0,0,0)" stroke="none">DET </tspan></tspan></tspan></text>
 <text class="TextShape"><tspan class="TextParagraph" font-family="Liberation Sans, sans-serif" font-size="353px" font-weight="400"><tspan class="TextPosition" x="5909" y="7914" transform="translate(5909,7914) rotate(-90) translate(-5909,-7914)"><tspan fill="rgb(0,0,0)" stroke="none"> </tspan></tspan><tspan class="TextPosition" x="5909" y="7808" transform="translate(5909,7808) rotate(-90) translate(-5909,-7808)"><tspan fill="rgb(0,0,0)" stroke="none">NUM </tspan></tspan></tspan></text>
 <text class="TextShape"><tspan class="TextParagraph" font-family="Liberation Sans, sans-serif" font-size="353px" font-weight="400"><tspan class="TextPosition" x="6675" y="8099" transform="translate(6675,8099) rotate(-90) translate(-6675,-8099)"><tspan fill="rgb(0,0,0)" stroke="none"> </tspan></tspan><tspan class="TextPosition" x="6675" y="7993" transform="translate(6675,7993) rotate(-90) translate(-6675,-7993)"><tspan fill="rgb(0,0,0)" stroke="none">VERB </tspan></tspan></tspan></text>
 <text class="TextShape"><tspan class="TextParagraph" font-family="Liberation Sans, sans-serif" font-size="353px" font-weight="400"><tspan class="TextPosition" x="7440" y="8126" transform="translate(7440,8126) rotate(-90) translate(-7440,-8126)"><tspan fill="rgb(0,0,0)" stroke="none"> </tspan></tspan><tspan class="TextPosition" x="7440" y="8020" transform="translate(7440,8020) rotate(-90) translate(-7440,-8020)"><tspan fill="rgb(0,0,0)" stroke="none">PRON </tspan></tspan></tspan></text>
 <text class="TextShape"><tspan class="TextParagraph" font-family="Liberation Sans, sans-serif" font-size="353px" font-weight="400"><tspan class="TextPosition" x="8205" y="7835" transform="translate(8205,7835) rotate(-90) translate(-8205,-7835)"><tspan fill="rgb(0,0,0)" stroke="none"> </tspan></tspan><tspan class="TextPosition" x="8205" y="7729" transform="translate(8205,7729) rotate(-90) translate(-8205,-7729)"><tspan fill="rgb(0,0,0)" stroke="none">ADP </tspan></tspan></tspan></text>
 <text class="TextShape"><tspan class="TextParagraph" font-family="Liberation Sans, sans-serif" font-size="353px" font-weight="400"><tspan class="TextPosition" x="8970" y="7385" transform="translate(8970,7385) rotate(-90) translate(-8970,-7385)"><tspan fill="rgb(0,0,0)" stroke="none"> </tspan></tspan><tspan class="TextPosition" x="8970" y="7279" transform="translate(8970,7279) rotate(-90) translate(-8970,-7279)"><tspan fill="rgb(0,0,0)" stroke="none">X </tspan></tspan></tspan></text>
 <text class="TextShape"><tspan class="TextParagraph" font-family="Liberation Sans, sans-serif" font-size="353px" font-weight="400"><tspan class="TextPosition" x="9735" y="7861" transform="translate(9735,7861) rotate(-90) translate(-9735,-7861)"><tspan fill="rgb(0,0,0)" stroke="none"> </tspan></tspan><tspan class="TextPosition" x="9735" y="7755" transform="translate(9735,7755) rotate(-90) translate(-9735,-7755)"><tspan fill="rgb(0,0,0)" stroke="none">ADV </tspan></tspan></tspan></text>
 <text class="TextShape"><tspan class="TextParagraph" font-family="Liberation Sans, sans-serif" font-size="353px" font-weight="400"><tspan class="TextPosition" x="10500" y="8073" transform="translate(10500,8073) rotate(-90) translate(-10500,-8073)"><tspan fill="rgb(0,0,0)" stroke="none"> </tspan></tspan><tspan class="TextPosition" x="10500" y="7967" transform="translate(10500,7967) rotate(-90) translate(-10500,-7967)"><tspan fill="rgb(0,0,0)" stroke="none">CONJ </tspan></tspan></tspan></text>
 <text class="TextShape"><tspan class="TextParagraph" font-family="Liberation Sans, sans-serif" font-size="353px" font-weight="400"><tspan class="TextPosition" x="11266" y="8099" transform="translate(11266,8099) rotate(-90) translate(-11266,-8099)"><tspan fill="rgb(0,0,0)" stroke="none"> </tspan></tspan><tspan class="TextPosition" x="11266" y="7993" transform="translate(11266,7993) rotate(-90) translate(-11266,-7993)"><tspan fill="rgb(0,0,0)" stroke="none">VERB </tspan></tspan></tspan></text>
 <text class="TextShape"><tspan class="TextParagraph" font-family="Liberation Sans, sans-serif" font-size="353px" font-weight="400"><tspan class="TextPosition" x="12031" y="7861" transform="translate(12031,7861) rotate(-90) translate(-12031,-7861)"><tspan fill="rgb(0,0,0)" stroke="none"> </tspan></tspan><tspan class="TextPosition" x="12031" y="7755" transform="translate(12031,7755) rotate(-90) translate(-12031,-7755)"><tspan fill="rgb(0,0,0)" stroke="none">AUX </tspan></tspan></tspan></text>
 <text class="TextShape"><tspan class="TextParagraph" font-family="Liberation Sans, sans-serif" font-size="353px" font-weight="400"><tspan class="TextPosition" x="12796" y="8126" transform="translate(12796,8126) rotate(-90) translate(-12796,-8126)"><tspan fill="rgb(0,0,0)" stroke="none"> </tspan></tspan><tspan class="TextPosition" x="12796" y="8020" transform="translate(12796,8020) rotate(-90) translate(-12796,-8020)"><tspan fill="rgb(0,0,0)" stroke="none">NOUN </tspan></tspan></tspan></text>
 <text class="TextShape"><tspan class="TextParagraph" font-family="Liberation Sans, sans-serif" font-size="353px" font-weight="400"><tspan class="TextPosition" x="13562" y="7861" transform="translate(13562,7861) rotate(-90) translate(-13562,-7861)"><tspan fill="rgb(0,0,0)" stroke="none"> </tspan></tspan><tspan class="TextPosition" x="13562" y="7755" transform="translate(13562,7755) rotate(-90) translate(-13562,-7755)"><tspan fill="rgb(0,0,0)" stroke="none">ADV </tspan></tspan></tspan></text>
 <text class="TextShape"><tspan class="TextParagraph" font-family="Liberation Sans, sans-serif" font-size="353px" font-weight="400"><tspan class="TextPosition" x="14327" y="7385" transform="translate(14327,7385) rotate(-90) translate(-14327,-7385)"><tspan fill="rgb(0,0,0)" stroke="none"> </tspan></tspan><tspan class="TextPosition" x="14327" y="7279" transform="translate(14327,7279) rotate(-90) translate(-14327,-7279)"><tspan fill="rgb(0,0,0)" stroke="none">X </tspan></tspan></tspan></text>
 <text class="TextShape"><tspan class="TextParagraph" font-family="Liberation Sans, sans-serif" font-size="353px" font-weight="400"><tspan class="TextPosition" x="15092" y="8126" transform="translate(15092,8126) rotate(-90) translate(-15092,-8126)"><tspan fill="rgb(0,0,0)" stroke="none"> </tspan></tspan><tspan class="TextPosition" x="15092" y="8020" transform="translate(15092,8020) rotate(-90) translate(-15092,-8020)"><tspan fill="rgb(0,0,0)" stroke="none">PRON </tspan></tspan></tspan></text>
 <text class="TextShape"><tspan class="TextParagraph" font-family="Liberation Sans, sans-serif" font-size="353px" font-weight="400"><tspan class="TextPosition" x="15858" y="7994" transform="translate(15858,7994) rotate(-90) translate(-15858,-7994)"><tspan fill="rgb(0,0,0)" stroke="none"> </tspan></tspan><tspan class="TextPosition" x="15858" y="7888" transform="translate(15858,7888) rotate(-90) translate(-15858,-7888)"><tspan fill="rgb(0,0,0)" stroke="none">PART </tspan></tspan></tspan></text>
 <text class="TextShape"><tspan class="TextParagraph" font-family="Liberation Sans, sans-serif" font-size="353px" font-weight="400"><tspan class="TextPosition" x="16623" y="7808" transform="translate(16623,7808) rotate(-90) translate(-16623,-7808)"><tspan fill="rgb(0,0,0)" stroke="none"> </tspan></tspan><tspan class="TextPosition" x="16623" y="7702" transform="translate(16623,7702) rotate(-90) translate(-16623,-7702)"><tspan fill="rgb(0,0,0)" stroke="none">DET </tspan></tspan></tspan></text>
 <text class="TextShape"><tspan class="TextParagraph" font-family="Liberation Sans, sans-serif" font-size="353px" font-weight="400"><tspan class="TextPosition" x="2583" y="8683"><tspan fill="rgb(0,0,0)" stroke="none">n </tspan></tspan></tspan></text>
 <text class="TextShape"><tspan class="TextParagraph" font-family="Liberation Sans, sans-serif" font-size="353px" font-weight="400"><tspan class="TextPosition" x="3348" y="8683"><tspan fill="rgb(0,0,0)" stroke="none">n </tspan></tspan></tspan></text>
 <text class="TextShape"><tspan class="TextParagraph" font-family="Liberation Sans, sans-serif" font-size="353px" font-weight="400"><tspan class="TextPosition" x="4114" y="8683"><tspan fill="rgb(0,0,0)" stroke="none">n </tspan></tspan></tspan></text>
 <text class="TextShape"><tspan class="TextParagraph" font-family="Liberation Sans, sans-serif" font-size="353px" font-weight="400"><tspan class="TextPosition" x="4879" y="8683"><tspan fill="rgb(0,0,0)" stroke="none">n </tspan></tspan></tspan></text>
 <text class="TextShape"><tspan class="TextParagraph" font-family="Liberation Sans, sans-serif" font-size="353px" font-weight="400"><tspan class="TextPosition" x="5644" y="8683"><tspan fill="rgb(0,0,0)" stroke="none">n </tspan></tspan></tspan></text>
 <text class="TextShape"><tspan class="TextParagraph" font-family="Liberation Sans, sans-serif" font-size="353px" font-weight="400"><tspan class="TextPosition" x="6410" y="8683"><tspan fill="rgb(0,0,0)" stroke="none">n </tspan></tspan></tspan></text>
 <text class="TextShape"><tspan class="TextParagraph" font-family="Liberation Sans, sans-serif" font-size="353px" font-weight="400"><tspan class="TextPosition" x="7175" y="8683"><tspan fill="rgb(0,0,0)" stroke="none">n </tspan></tspan></tspan></text>
 <text class="TextShape"><tspan class="TextParagraph" font-family="Liberation Sans, sans-serif" font-size="353px" font-weight="400"><tspan class="TextPosition" x="7940" y="8683"><tspan fill="rgb(0,0,0)" stroke="none">n </tspan></tspan></tspan></text>
 <text class="TextShape"><tspan class="TextParagraph" font-family="Liberation Sans, sans-serif" font-size="353px" font-weight="400"><tspan class="TextPosition" x="8706" y="8683"><tspan fill="rgb(0,0,0)" stroke="none">n </tspan></tspan></tspan></text>
 <text class="TextShape"><tspan class="TextParagraph" font-family="Liberation Sans, sans-serif" font-size="353px" font-weight="400"><tspan class="TextPosition" x="9471" y="8683"><tspan fill="rgb(0,0,0)" stroke="none">n </tspan></tspan></tspan></text>
 <text class="TextShape"><tspan class="TextParagraph" font-family="Liberation Sans, sans-serif" font-size="353px" font-weight="400"><tspan class="TextPosition" x="10236" y="8683"><tspan fill="rgb(0,0,0)" stroke="none">n </tspan></tspan></tspan></text>
 <text class="TextShape"><tspan class="TextParagraph" font-family="Liberation Sans, sans-serif" font-size="353px" font-weight="400"><tspan class="TextPosition" x="11002" y="8683"><tspan fill="rgb(0,0,0)" stroke="none">v </tspan></tspan></tspan></text>
 <text class="TextShape"><tspan class="TextParagraph" font-family="Liberation Sans, sans-serif" font-size="353px" font-weight="400"><tspan class="TextPosition" x="11767" y="8683"><tspan fill="rgb(0,0,0)" stroke="none">v </tspan></tspan></tspan></text>
 <text class="TextShape"><tspan class="TextParagraph" font-family="Liberation Sans, sans-serif" font-size="353px" font-weight="400"><tspan class="TextPosition" x="12532" y="8683"><tspan fill="rgb(0,0,0)" stroke="none">v </tspan></tspan></tspan></text>
 <text class="TextShape"><tspan class="TextParagraph" font-family="Liberation Sans, sans-serif" font-size="353px" font-weight="400"><tspan class="TextPosition" x="13298" y="8683"><tspan fill="rgb(0,0,0)" stroke="none">v </tspan></tspan></tspan></text>
 <text class="TextShape"><tspan class="TextParagraph" font-family="Liberation Sans, sans-serif" font-size="353px" font-weight="400"><tspan class="TextPosition" x="14063" y="8683"><tspan fill="rgb(0,0,0)" stroke="none">v </tspan></tspan></tspan></text>
 <text class="TextShape"><tspan class="TextParagraph" font-family="Liberation Sans, sans-serif" font-size="353px" font-weight="400"><tspan class="TextPosition" x="14828" y="8683"><tspan fill="rgb(0,0,0)" stroke="none">v </tspan></tspan></tspan></text>
 <text class="TextShape"><tspan class="TextParagraph" font-family="Liberation Sans, sans-serif" font-size="353px" font-weight="400"><tspan class="TextPosition" x="15594" y="8683"><tspan fill="rgb(0,0,0)" stroke="none">v </tspan></tspan></tspan></text>
 <text class="TextShape"><tspan class="TextParagraph" font-family="Liberation Sans, sans-serif" font-size="353px" font-weight="400"><tspan class="TextPosition" x="16359" y="8683"><tspan fill="rgb(0,0,0)" stroke="none">v </tspan></tspan></tspan></text>
 <text class="TextShape"><tspan class="TextParagraph" font-family="Liberation Sans, sans-serif" font-size="353px" font-weight="400"><tspan class="TextPosition" x="1912" y="6805"><tspan fill="rgb(0,0,0)" stroke="none">0</tspan></tspan></tspan></text>
 <text class="TextShape"><tspan class="TextParagraph" font-family="Liberation Sans, sans-serif" font-size="353px" font-weight="400"><tspan class="TextPosition" x="1541" y="5946"><tspan fill="rgb(0,0,0)" stroke="none">200</tspan></tspan></tspan></text>
 <text class="TextShape"><tspan class="TextParagraph" font-family="Liberation Sans, sans-serif" font-size="353px" font-weight="400"><tspan class="TextPosition" x="1541" y="5087"><tspan fill="rgb(0,0,0)" stroke="none">400</tspan></tspan></tspan></text>
 <text class="TextShape"><tspan class="TextParagraph" font-family="Liberation Sans, sans-serif" font-size="353px" font-weight="400"><tspan class="TextPosition" x="1541" y="4228"><tspan fill="rgb(0,0,0)" stroke="none">600</tspan></tspan></tspan></text>
 <text class="TextShape"><tspan class="TextParagraph" font-family="Liberation Sans, sans-serif" font-size="353px" font-weight="400"><tspan class="TextPosition" x="1541" y="3369"><tspan fill="rgb(0,0,0)" stroke="none">800</tspan></tspan></tspan></text>
 <text class="TextShape"><tspan class="TextParagraph" font-family="Liberation Sans, sans-serif" font-size="353px" font-weight="400"><tspan class="TextPosition" x="1356" y="2510"><tspan fill="rgb(0,0,0)" stroke="none">1000</tspan></tspan></tspan></text>
 <text class="TextShape"><tspan class="TextParagraph" font-family="Liberation Sans, sans-serif" font-size="353px" font-weight="400"><tspan class="TextPosition" x="1356" y="1652"><tspan fill="rgb(0,0,0)" stroke="none">1200</tspan></tspan></tspan></text>
 <text class="TextShape"><tspan class="TextParagraph" font-family="Liberation Sans, sans-serif" font-size="459px" font-weight="400"><tspan class="TextPosition" x="4912" y="893"><tspan fill="rgb(0,0,0)" stroke="none">POS count per supersense head type</tspan></tspan></tspan></text>
 <text class="TextShape"><tspan class="TextParagraph" font-family="Liberation Sans, sans-serif" font-size="318px" font-weight="400"><tspan class="TextPosition" x="7057" y="9240"><tspan fill="rgb(0,0,0)" stroke="none">Supersense head/POS head</tspan></tspan></tspan></text>
 <text class="TextShape"><tspan class="TextParagraph" font-family="Liberation Sans, sans-serif" font-size="318px" font-weight="400"><tspan class="TextPosition" x="837" y="5762" transform="translate(837,5762) rotate(-90) translate(-837,-5762)"><tspan fill="rgb(0,0,0)" stroke="none">Frequency</tspan></tspan></tspan></text>
</svg>